<svg width="24" height="24" viewBox="0 0 24 24" fill="none" xmlns="http://www.w3.org/2000/svg">
<path d="M20.462 2H3.53809C2.54298 2 1.7334 2.80958 1.7334 3.80469V15.8359C1.7334 16.831 2.54298 17.6406 3.53809 17.6406H5.38288V20.6484C5.38288 20.8917 5.52946 21.1111 5.75424 21.2042C5.97907 21.2973 6.23778 21.2458 6.40982 21.0738L9.84298 17.6406H20.462C21.4571 17.6406 22.2667 16.831 22.2667 15.8359V3.80469C22.2667 2.80958 21.4571 2 20.462 2ZM21.0636 15.8359C21.0636 16.1676 20.7937 16.4375 20.462 16.4375H9.59381C9.43428 16.4375 9.28128 16.5009 9.16847 16.6137L6.586 19.1961V17.0391C6.586 16.7068 6.31666 16.4375 5.98444 16.4375H3.53809C3.20638 16.4375 2.93652 16.1676 2.93652 15.8359V3.80469C2.93652 3.47299 3.20638 3.20312 3.53809 3.20312H20.462C20.7937 3.20312 21.0636 3.47299 21.0636 3.80469V15.8359Z" fill="white"/>
<path d="M16.7839 8.4131C16.7136 8.19337 16.5238 8.03327 16.2955 8.00087L13.6966 7.63215L12.5369 5.33799C12.4345 5.13546 12.227 5.00781 12 5.00781C11.7731 5.00781 11.5656 5.1355 11.4632 5.33799L10.3035 7.63215L7.7046 8.00087C7.47625 8.03327 7.28651 8.19337 7.21617 8.41302C7.14583 8.63267 7.20731 8.87321 7.37438 9.03219L9.24629 10.8137L8.80506 13.3255C8.76556 13.5504 8.85679 13.7784 9.04063 13.9138C9.22443 14.0493 9.46911 14.0691 9.67227 13.9648L12 12.77L14.3278 13.9649C14.531 14.0691 14.7757 14.0494 14.9595 13.9139C15.1432 13.7784 15.2345 13.5505 15.195 13.3256L14.7538 10.8138L16.6257 9.03227C16.7928 8.87325 16.8543 8.63275 16.7839 8.4131ZM13.6908 10.1645C13.5449 10.3033 13.4782 10.506 13.513 10.7043L13.8007 12.3419L12.2748 11.5586C12.1885 11.5144 12.0943 11.4923 12 11.4923C11.9058 11.4923 11.8116 11.5144 11.7253 11.5586L10.1994 12.3419L10.4871 10.7043C10.5219 10.506 10.4552 10.3033 10.3093 10.1645L9.10408 9.01747L10.7833 8.77921C10.978 8.75162 11.1469 8.6305 11.2357 8.45501L12 6.94284L12.7644 8.45501C12.8531 8.63054 13.0221 8.75162 13.2168 8.77921L14.896 9.01747L13.6908 10.1645Z" fill="white"/>
</svg>
