<svg width="24" height="24" viewBox="0 0 24 24" fill="none" xmlns="http://www.w3.org/2000/svg">
<path d="M19.999 20.1619C19.8004 20.7238 19.4325 21.2103 18.9459 21.5544C18.4592 21.8985 17.8779 22.0833 17.2818 22.0833C16.6858 22.0833 16.1044 21.8985 15.6178 21.5544C15.1312 21.2103 14.7632 20.7238 14.5646 20.1619H2.87707C2.62237 20.1619 2.37811 20.0608 2.19802 19.8807C2.01792 19.7006 1.91675 19.4564 1.91675 19.2018C1.91675 18.9471 2.01792 18.7029 2.19802 18.5228C2.37811 18.3427 2.62237 18.2416 2.87707 18.2416H14.5646C14.7632 17.6797 15.1312 17.1932 15.6178 16.8491C16.1044 16.505 16.6858 16.3202 17.2818 16.3202C17.8779 16.3202 18.4592 16.505 18.9459 16.8491C19.4325 17.1932 19.8004 17.6797 19.999 18.2416H21.1231C21.3778 18.2416 21.6221 18.3427 21.8021 18.5228C21.9822 18.7029 22.0834 18.9471 22.0834 19.2018C22.0834 19.4564 21.9822 19.7006 21.8021 19.8807C21.6221 20.0608 21.3778 20.1619 21.1231 20.1619H19.999ZM16.3215 19.2018C16.3215 19.4564 16.4227 19.7006 16.6028 19.8807C16.7829 20.0608 17.0271 20.1619 17.2818 20.1619C17.5365 20.1619 17.7808 20.0608 17.9609 19.8807C18.141 19.7006 18.2421 19.4564 18.2421 19.2018C18.2421 18.9471 18.141 18.7029 17.9609 18.5228C17.7808 18.3427 17.5365 18.2416 17.2818 18.2416C17.0271 18.2416 16.7829 18.3427 16.6028 18.5228C16.4227 18.7029 16.3215 18.9471 16.3215 19.2018ZM14.7173 5.75909C14.5187 6.32098 14.1507 6.80748 13.6641 7.15159C13.1775 7.49569 12.5961 7.68047 12.0001 7.68047C11.4041 7.68047 10.8227 7.49569 10.3361 7.15159C9.84942 6.80748 9.48147 6.32098 9.28286 5.75909H2.87707C2.62237 5.75909 2.37811 5.65793 2.19802 5.47786C2.01792 5.29779 1.91675 5.05356 1.91675 4.7989C1.91675 4.54424 2.01792 4.30001 2.19802 4.11994C2.37811 3.93987 2.62237 3.83871 2.87707 3.83871H9.28286C9.48137 3.27665 9.84931 2.78998 10.336 2.44574C10.8227 2.10151 11.4042 1.91666 12.0003 1.91666C12.5965 1.91666 13.178 2.10151 13.6646 2.44574C14.1513 2.78998 14.5193 3.27665 14.7178 3.83871H21.1231C21.3778 3.83871 21.6221 3.93987 21.8021 4.11994C21.9822 4.30001 22.0834 4.54424 22.0834 4.7989C22.0834 5.05356 21.9822 5.29779 21.8021 5.47786C21.6221 5.65793 21.3778 5.75909 21.1231 5.75909H14.7173ZM11.0398 4.7989C11.0398 5.05356 11.1409 5.29779 11.321 5.47786C11.5011 5.65793 11.7454 5.75909 12.0001 5.75909C12.2548 5.75909 12.499 5.65793 12.6791 5.47786C12.8592 5.29779 12.9604 5.05356 12.9604 4.7989C12.9604 4.54424 12.8592 4.30001 12.6791 4.11994C12.499 3.93987 12.2548 3.83871 12.0001 3.83871C11.7454 3.83871 11.5011 3.93987 11.321 4.11994C11.1409 4.30001 11.0398 4.54424 11.0398 4.7989ZM21.1231 12.9605H9.43555C9.23705 13.5226 8.86911 14.0093 8.38242 14.3535C7.89573 14.6977 7.31425 14.8826 6.7181 14.8826C6.12194 14.8826 5.54046 14.6977 5.05377 14.3535C4.56709 14.0093 4.19914 13.5226 4.00064 12.9605H2.87707C2.62237 12.9605 2.37811 12.8594 2.19802 12.6793C2.01792 12.4992 1.91675 12.255 1.91675 12.0003C1.91675 11.7457 2.01792 11.5014 2.19802 11.3214C2.37811 11.1413 2.62237 11.0401 2.87707 11.0401H4.00112C4.19972 10.4782 4.56768 9.99175 5.05431 9.64764C5.54094 9.30354 6.12231 9.11876 6.71834 9.11876C7.31436 9.11876 7.89573 9.30354 8.38236 9.64764C8.86899 9.99175 9.23695 10.4782 9.43555 11.0401H21.1231C21.3778 11.0401 21.6221 11.1413 21.8021 11.3214C21.9822 11.5014 22.0834 11.7457 22.0834 12.0003C22.0834 12.255 21.9822 12.4992 21.8021 12.6793C21.6221 12.8594 21.3778 12.9605 21.1231 12.9605ZM5.75802 12.0003C5.75802 12.255 5.85919 12.4992 6.03929 12.6793C6.21938 12.8594 6.46364 12.9605 6.71834 12.9605C6.97303 12.9605 7.21729 12.8594 7.39738 12.6793C7.57748 12.4992 7.67865 12.255 7.67865 12.0003C7.67865 11.7457 7.57748 11.5014 7.39738 11.3214C7.21729 11.1413 6.97303 11.0401 6.71834 11.0401C6.46364 11.0401 6.21938 11.1413 6.03929 11.3214C5.85919 11.5014 5.75802 11.7457 5.75802 12.0003Z" fill="white"/>
</svg>
