<svg width="24" height="24" viewBox="0 0 24 24" fill="none" xmlns="http://www.w3.org/2000/svg">
<path d="M22.9044 17.0363L22.0016 12.1257C21.7115 9.88116 19.7906 8.19107 17.5257 8.19107H6.47421C4.20928 8.19107 2.28845 9.88116 1.99826 12.1258L1.09549 17.0363C0.646636 19.4779 2.48721 21.758 4.95606 21.8571C7.3085 21.9512 9.19851 20.0307 9.2059 17.739C9.20599 17.7309 8.94047 17.7337 14.794 17.7337C14.794 20.0175 16.6842 21.9518 19.0438 21.8571C21.5015 21.7584 23.3555 19.4896 22.9044 17.0363ZM20.484 20.0629C19.4243 20.8092 17.9558 20.7458 16.9641 19.7932C16.4044 19.2556 16.0835 18.5021 16.0835 17.7258C16.0835 17.033 15.5124 16.4442 14.794 16.4442H9.2059C8.48758 16.4442 7.91635 17.0329 7.91635 17.7258C7.91635 19.2987 6.62461 20.6333 5.00773 20.5686C3.52947 20.5093 2.36148 19.2994 2.31501 17.8451C2.30337 17.481 2.29047 17.6683 3.26976 12.3414C3.27199 12.3292 3.27388 12.317 3.27539 12.3047C3.47664 10.6947 4.85182 9.48058 6.47416 9.48058H17.5256C19.148 9.48058 20.5231 10.6947 20.7244 12.3047C20.7279 12.3331 20.664 11.9826 21.636 17.2695C21.8419 18.3877 21.3401 19.4601 20.484 20.0629Z" fill="white"/>
<path d="M8.90511 12.6616H7.83049V11.5869C7.83049 11.2309 7.5418 10.9422 7.18571 10.9422C6.82962 10.9422 6.54094 11.2309 6.54094 11.5869V12.6616H5.46631C5.11022 12.6616 4.82153 12.9503 4.82153 13.3063C4.82153 13.6624 5.11022 13.9511 5.46631 13.9511H6.54094V15.0257C6.54094 15.3818 6.82962 15.6705 7.18571 15.6705C7.5418 15.6705 7.83049 15.3818 7.83049 15.0257V13.9511H8.90511C9.2612 13.9511 9.54989 13.6624 9.54989 13.3063C9.54989 12.9503 9.2612 12.6616 8.90511 12.6616Z" fill="white"/>
<path d="M17.4465 11.4609C17.3667 11.0802 16.9893 10.862 16.6268 10.97C16.2548 11.0912 16.102 11.46 16.1973 11.7738C16.3154 12.1427 16.6854 12.2999 17.0012 12.2037C17.3348 12.0972 17.5062 11.7796 17.4465 11.4609Z" fill="white"/>
<path d="M18.5337 12.6615C18.1776 12.6615 17.8889 12.9502 17.8889 13.3062V13.3492C17.8889 13.7053 18.1776 13.994 18.5337 13.994C18.8898 13.994 19.1785 13.7053 19.1785 13.3492V13.3062C19.1785 12.9501 18.8898 12.6615 18.5337 12.6615Z" fill="white"/>
<path d="M15.0947 12.6615C14.7386 12.6615 14.45 12.9502 14.45 13.3062V13.3492C14.45 13.7053 14.7386 13.994 15.0947 13.994C15.4508 13.994 15.7395 13.7053 15.7395 13.3492V13.3062C15.7395 12.9501 15.4508 12.6615 15.0947 12.6615Z" fill="white"/>
<path d="M17.4467 14.8998C17.3669 14.519 16.9895 14.3009 16.6269 14.4089C16.2565 14.5296 16.1027 14.8939 16.1975 15.2131C16.3207 15.5897 16.6915 15.7369 17.0013 15.6425C17.3337 15.5364 17.5065 15.2195 17.4467 14.8998Z" fill="white"/>
<path d="M10.3283 5.44467C10.0765 5.69648 10.0765 6.10471 10.3283 6.35652C10.58 6.60828 10.9883 6.60828 11.2401 6.35652C11.6601 5.93655 12.3398 5.93647 12.7598 6.35652C13.0116 6.60832 13.4199 6.60832 13.6717 6.35652C13.9235 6.10471 13.9235 5.69648 13.6717 5.44467C12.75 4.52286 11.2501 4.5229 10.3283 5.44467Z" fill="white"/>
<path d="M9.29479 4.41121C10.7899 2.91614 13.2099 2.91588 14.7051 4.41121C14.9569 4.66301 15.3651 4.66301 15.6169 4.41121C15.8687 4.1594 15.8687 3.75117 15.6169 3.49936C13.618 1.50034 10.3822 1.50008 8.38295 3.49936C8.13114 3.75117 8.13114 4.1594 8.38295 4.41121C8.63475 4.66301 9.04302 4.66301 9.29479 4.41121Z" fill="white"/>
</svg>
