<svg width="24" height="24" viewBox="0 0 24 24" fill="none" xmlns="http://www.w3.org/2000/svg">
<path d="M21.6818 6.17809H17.1019V2.60261C17.1019 2.26981 16.8321 2 16.4993 2H2.31794C1.98514 2 1.71533 2.26981 1.71533 2.60261V18.1901C1.71533 19.8515 3.06698 21.2031 4.72837 21.2031H19.2713C20.9327 21.2031 22.2844 19.8515 22.2844 18.1901V6.78069C22.2844 6.44789 22.0146 6.17809 21.6818 6.17809ZM4.72837 19.9979C3.73154 19.9979 2.92055 19.1869 2.92055 18.1901V3.20522H15.8967C15.8967 19.1328 15.8891 18.2473 15.9105 18.4744C15.9629 19.0331 16.1713 19.5599 16.5007 19.9979H4.72837ZM21.0792 18.1901C21.0792 19.1869 20.2682 19.9979 19.2713 19.9979C19.1361 19.9979 19.0425 19.9979 18.9098 19.9979C17.9129 19.9979 17.1019 19.1869 17.1019 18.1901V7.3833H21.0792V18.1901Z" fill="white"/>
<path d="M13.9282 4.89258H4.92927C4.59647 4.89258 4.32666 5.16239 4.32666 5.49519C4.32666 5.82799 4.59647 6.0978 4.92927 6.0978H13.9282C14.261 6.0978 14.5308 5.82799 14.5308 5.49519C14.5308 5.16239 14.261 4.89258 13.9282 4.89258Z" fill="white"/>
<path d="M13.9282 7.46371H4.92927C4.59647 7.46371 4.32666 7.73352 4.32666 8.06632C4.32666 8.39912 4.59647 8.66893 4.92927 8.66893H13.9282C14.261 8.66893 14.5308 8.39912 14.5308 8.06632C14.5308 7.73352 14.261 7.46371 13.9282 7.46371Z" fill="white"/>
<path d="M13.9282 17.1055H4.92927C4.59647 17.1055 4.32666 17.3753 4.32666 17.7081C4.32666 18.0409 4.59647 18.3107 4.92927 18.3107H13.9282C14.261 18.3107 14.5308 18.0409 14.5308 17.7081C14.5308 17.3753 14.261 17.1055 13.9282 17.1055Z" fill="white"/>
<path d="M13.9283 10.0349H9.42878C9.09598 10.0349 8.82617 10.3047 8.82617 10.6375V15.137C8.82617 15.4698 9.09598 15.7396 9.42878 15.7396H13.9283C14.2611 15.7396 14.5309 15.4698 14.5309 15.137V10.6375C14.5309 10.3047 14.2611 10.0349 13.9283 10.0349ZM13.3256 14.5344H10.0314V11.2401H13.3256V14.5344Z" fill="white"/>
<path d="M4.92927 12.2041H6.85762C7.19042 12.2041 7.46022 11.9343 7.46022 11.6015C7.46022 11.2687 7.19042 10.9989 6.85762 10.9989H4.92927C4.59647 10.9989 4.32666 11.2687 4.32666 11.6015C4.32666 11.9343 4.59647 12.2041 4.92927 12.2041Z" fill="white"/>
<path d="M4.92927 14.7753H6.85762C7.19042 14.7753 7.46022 14.5054 7.46022 14.1726C7.46022 13.8398 7.19042 13.57 6.85762 13.57H4.92927C4.59647 13.57 4.32666 13.8398 4.32666 14.1726C4.32666 14.5054 4.59647 14.7753 4.92927 14.7753Z" fill="white"/>
</svg>
