<svg width="24" height="24" viewBox="0 0 24 24" fill="none" xmlns="http://www.w3.org/2000/svg">
<path d="M21.9977 7.00127C21.9925 5.62095 20.8694 4.50619 19.4891 4.51138C18.5071 4.51506 17.6183 5.09341 17.2172 5.98968L15.0834 5.6329L14.8748 6.86568L17.0191 7.2237C17.1026 8.15352 17.6973 8.9593 18.5612 9.31311L17.9526 13.9037C16.6991 14.051 15.7532 15.1115 15.7495 16.3736V16.383L8.54593 18.2824C8.1617 17.5975 7.4765 17.1342 6.6977 17.0328L5.42181 6.82132C6.02879 6.57959 6.51732 6.11031 6.7833 5.51356L8.71463 5.83597L8.9202 4.60382L6.9795 4.27954C6.86152 2.90774 5.65378 1.89131 4.28198 2.00932C2.91018 2.12729 1.89375 3.335 2.01176 4.7068C2.1124 5.87686 3.01597 6.818 4.18091 6.96628L5.45805 17.1759C4.17447 17.6835 3.54539 19.1356 4.05302 20.4191C4.56065 21.7027 6.0127 22.3318 7.29628 21.8242C8.25074 21.4467 8.87739 20.5241 8.87646 19.4977V19.4884L16.08 17.5889C16.751 18.7912 18.2696 19.2219 19.4719 18.551C20.6742 17.88 21.105 16.3614 20.434 15.1591C20.1566 14.6619 19.7173 14.2747 19.1892 14.0618L19.7977 9.47119C21.05 9.3224 21.9942 8.26235 21.9977 7.00127ZM4.5027 5.75162C3.81254 5.75162 3.25305 5.19213 3.25305 4.50197C3.25305 3.81182 3.81254 3.25233 4.5027 3.25233C5.19285 3.25233 5.75234 3.81182 5.75234 4.50197C5.75234 5.19213 5.19285 5.75162 4.5027 5.75162ZM6.37717 20.7474C5.68701 20.7474 5.12752 20.1879 5.12752 19.4977C5.12752 18.8076 5.68701 18.2481 6.37717 18.2481C7.06732 18.2481 7.62681 18.8076 7.62681 19.4977C7.62681 20.1879 7.06732 20.7474 6.37717 20.7474ZM19.4984 16.3736C19.4984 17.0638 18.939 17.6233 18.2488 17.6233C17.5586 17.6233 16.9992 17.0638 16.9992 16.3736C16.9992 15.6835 17.5586 15.124 18.2488 15.124C18.939 15.124 19.4984 15.6835 19.4984 16.3736ZM18.2488 7.00127C18.2488 6.31111 18.8083 5.75162 19.4984 5.75162C20.1886 5.75162 20.7481 6.31111 20.7481 7.00127C20.7481 7.69142 20.1886 8.25091 19.4984 8.25091C18.8083 8.25091 18.2488 7.69142 18.2488 7.00127Z" fill="white"/>
<path d="M13.851 5.42734L12.6184 5.22165L12.4127 6.4543L13.6453 6.65999L13.851 5.42734Z" fill="white"/>
<path d="M11.3822 5.0156L10.1497 4.80966L9.94372 6.04218L11.1762 6.24813L11.3822 5.0156Z" fill="white"/>
</svg>
