<svg width="24" height="24" viewBox="0 0 24 24" fill="none" xmlns="http://www.w3.org/2000/svg">
<path d="M13.3859 22H10.6142C9.93758 22 9.36175 21.5375 9.21342 20.8758L8.86175 19.315C8.28925 19.0725 7.74425 18.7558 7.23342 18.37L5.71508 18.8492C5.06342 19.05 4.35508 18.7742 4.02842 18.1925L2.64675 15.8025C2.31592 15.2108 2.42758 14.4817 2.91508 14.0233L4.09175 12.9417C4.05592 12.625 4.03758 12.3092 4.03758 12C4.03758 11.6908 4.05508 11.375 4.09092 11.0583L2.92008 9.98167C2.42758 9.51833 2.31508 8.79 2.64258 8.20583L4.03258 5.80167C4.35592 5.22667 5.06342 4.94833 5.71342 5.15083L7.23342 5.63C7.74425 5.24417 8.29008 4.9275 8.86175 4.685L9.21342 3.12333C9.36175 2.4625 9.93758 2 10.6142 2H13.3859C14.0626 2 14.6384 2.4625 14.7867 3.12417L15.1384 4.685C15.7109 4.9275 16.2559 5.24417 16.7667 5.63L18.2851 5.15083C18.9351 4.9475 19.6443 5.22583 19.9718 5.8075L21.3534 8.1975C21.6843 8.78917 21.5726 9.51833 21.0851 9.97667L19.9084 11.0583C19.9443 11.375 19.9618 11.6908 19.9618 12C19.9618 12.3092 19.9443 12.625 19.9084 12.9417L21.0801 14.0183C21.0818 14.02 21.0834 14.0217 21.0851 14.0233C21.5726 14.4817 21.6851 15.21 21.3576 15.7942L19.9676 18.1983C19.6434 18.7733 18.9359 19.0517 18.2868 18.8492L16.7659 18.3692C16.2551 18.755 15.7093 19.0717 15.1376 19.3142L14.7859 20.8758C14.6384 21.5375 14.0626 22 13.3859 22ZM7.36175 17.0492C7.50508 17.0492 7.64592 17.0983 7.76008 17.1917C8.33092 17.6625 8.95592 18.025 9.61675 18.2692C9.81508 18.3425 9.96342 18.5117 10.0101 18.7183L10.4342 20.6017C10.4534 20.6875 10.5301 20.75 10.6159 20.75H13.3876C13.4734 20.75 13.5493 20.6875 13.5693 20.6025L13.9934 18.7192C14.0401 18.5125 14.1876 18.3433 14.3868 18.27C15.0476 18.0258 15.6726 17.6625 16.2434 17.1925C16.4067 17.0575 16.6259 17.0142 16.8293 17.0783L18.6634 17.6575C18.7501 17.6842 18.8434 17.6542 18.8843 17.58L20.2743 15.1767C20.3159 15.1025 20.3009 15.0008 20.2334 14.9358L18.8267 13.6425C18.6734 13.5017 18.6009 13.295 18.6326 13.0892C18.6876 12.7225 18.7159 12.3558 18.7159 12C18.7159 11.6442 18.6884 11.2783 18.6326 10.9108C18.6017 10.705 18.6742 10.4983 18.8267 10.3575L20.2368 9.06083C20.3001 9.00083 20.3167 8.89833 20.2701 8.81583L18.8884 6.42667C18.8434 6.3475 18.7534 6.31667 18.6617 6.34333L16.8301 6.92167C16.6267 6.98583 16.4076 6.9425 16.2443 6.8075C15.6734 6.33667 15.0484 5.97417 14.3876 5.73C14.1892 5.65667 14.0409 5.4875 13.9942 5.28083L13.5701 3.3975C13.5476 3.3125 13.4718 3.25 13.3859 3.25H10.6142C10.5284 3.25 10.4526 3.3125 10.4326 3.3975L10.0084 5.28167C9.96258 5.48833 9.81425 5.65667 9.61592 5.73083C8.95508 5.975 8.33008 6.3375 7.75925 6.80833C7.59592 6.94333 7.37675 6.98583 7.17342 6.9225L5.33925 6.34333C5.25258 6.31667 5.15925 6.3475 5.11842 6.42083L3.72842 8.82333C3.68592 8.89833 3.70258 9.00083 3.77092 9.06583L5.17675 10.3575C5.33008 10.4983 5.40258 10.705 5.37092 10.9108C5.31592 11.2775 5.28758 11.6442 5.28758 12C5.28758 12.3558 5.31508 12.7217 5.37092 13.0892C5.40175 13.295 5.32925 13.5017 5.17675 13.6425L3.76675 14.9392C3.70342 14.9992 3.68675 15.1017 3.73342 15.1842L5.11508 17.5733C5.16092 17.6533 5.25175 17.6858 5.34175 17.6567L7.17342 17.0783C7.23508 17.0583 7.29842 17.0492 7.36175 17.0492Z" fill="white"/>
<path d="M11.3758 15.3332C11.3283 15.3332 11.2817 15.3282 11.2342 15.3174C10.8983 15.2399 10.6883 14.9041 10.7658 14.5682L12.0158 9.15159C12.0933 8.81409 12.4333 8.60659 12.765 8.68242C13.1008 8.75992 13.3108 9.09575 13.2333 9.43159L11.9833 14.8482C11.9167 15.1382 11.66 15.3332 11.3758 15.3332Z" fill="white"/>
<path d="M14.7084 14.4999C14.5375 14.4999 14.3675 14.4308 14.2434 14.2933C14.0125 14.0366 14.0334 13.6416 14.29 13.4099L15.8575 11.9999L14.29 10.5899C14.0334 10.3591 14.0125 9.96411 14.2434 9.70661C14.475 9.45078 14.87 9.42995 15.1267 9.65995L17.21 11.5349C17.3417 11.6541 17.4167 11.8233 17.4167 11.9999C17.4167 12.1766 17.3417 12.3458 17.21 12.4649L15.1267 14.3399C15.0067 14.4474 14.8575 14.4999 14.7084 14.4999Z" fill="white"/>
<path d="M9.29183 14.4999C9.14266 14.4999 8.9935 14.4474 8.8735 14.3399L6.79016 12.4649C6.6585 12.3457 6.5835 12.1766 6.5835 11.9999C6.5835 11.8232 6.6585 11.6541 6.79016 11.5349L8.8735 9.6599C9.13016 9.42906 9.52433 9.4499 9.75683 9.70656C9.98766 9.96323 9.96683 10.3582 9.71016 10.5899L8.14266 11.9999L9.71016 13.4099C9.96683 13.6407 9.98766 14.0357 9.75683 14.2932C9.63266 14.4307 9.46266 14.4999 9.29183 14.4999Z" fill="white"/>
</svg>
