<svg width="24" height="24" viewBox="0 0 24 24" fill="none" xmlns="http://www.w3.org/2000/svg">
<path d="M13.8582 6.39825H4.93823V7.84409H13.8582V6.39825Z" fill="white"/>
<path d="M18.2271 17.2692C18.9185 16.0477 18.718 14.4913 17.7122 13.4866C17.1172 12.8915 16.326 12.5631 15.4817 12.5631C14.6374 12.5631 13.8451 12.8915 13.2501 13.4866C12.6551 14.0816 12.3267 14.8728 12.3267 15.7182C12.3267 16.5603 12.6551 17.3526 13.2501 17.9498C13.8451 18.5427 14.6363 18.8711 15.4795 18.8711C16.029 18.8711 16.5612 18.7312 17.0338 18.4646L20.5692 22.0001L21.7625 20.8057L18.2271 17.2692ZM16.8094 17.0448C16.1027 17.7515 14.8628 17.7515 14.1562 17.0448C13.4246 16.3121 13.4246 15.1232 14.1562 14.3905C14.5095 14.0372 14.9821 13.8421 15.4839 13.8421C15.9857 13.8421 16.4561 14.0372 16.8105 14.3905C17.1649 14.7438 17.36 15.2164 17.36 15.7182C17.36 16.22 17.1638 16.6904 16.8094 17.0448Z" fill="white"/>
<path d="M16.4496 19.6665H4.01263C3.81537 19.6665 3.65604 19.5061 3.65604 19.311V3.77532C3.65604 3.57806 3.81537 3.41874 4.01263 3.41874H16.4496C16.6469 3.41874 16.8051 3.57806 16.8051 3.77532V11.7003C17.32 11.813 17.8001 12.0331 18.225 12.3474V3.77532C18.225 2.79662 17.4294 2 16.4496 2H4.01263C3.03392 2 2.2373 2.79662 2.2373 3.77532V19.311C2.2373 20.2886 3.03392 21.0852 4.01263 21.0852H16.4496C17.1921 21.0852 17.5432 20.9097 17.8077 20.2615L17.1639 19.6177C16.9265 19.7174 16.5515 19.6665 16.4496 19.6665Z" fill="white"/>
<path d="M13.8582 10.4735H4.93823V11.9194H13.8582V10.4735Z" fill="white"/>
</svg>
