<svg width="24" height="24" viewBox="0 0 24 24" fill="none" xmlns="http://www.w3.org/2000/svg">
<path d="M15.7578 5.58801C16.3678 5.63101 18.1118 5.81501 19.2398 7.47401C19.1478 7.53101 17.1618 8.68701 17.1898 11.091C17.2198 13.964 19.7098 14.921 19.7368 14.936C19.4328 15.897 18.988 16.8076 18.4168 17.638C17.6238 18.794 16.8068 19.95 15.5098 19.971C14.2398 19.991 13.8298 19.219 12.3748 19.219C10.9198 19.219 10.4668 19.949 9.26178 19.999C8.01378 20.049 7.06378 18.751 6.26178 17.595C4.63178 15.233 3.38178 10.929 5.05578 8.02101C5.88578 6.57401 7.37578 5.66701 8.98578 5.63801C10.2118 5.61801 11.3678 6.46101 12.1198 6.46101C12.8718 6.46901 14.1978 5.47601 15.7578 5.58901V5.58801ZM14.7938 4.03601C15.4598 3.23601 15.9068 2.11401 15.7798 1.00101C14.8228 1.03601 13.6668 1.63901 12.9798 2.44101C12.3618 3.15101 11.8228 4.29101 11.9718 5.37701C13.0418 5.46201 14.1338 4.83701 14.7938 4.03701" fill="black"/>
</svg>
