<svg width="24" height="24" viewBox="0 0 24 24" fill="none" xmlns="http://www.w3.org/2000/svg">
<path fill-rule="evenodd" clip-rule="evenodd" d="M7.54608 19.4794C7.95668 19.4794 8.2904 19.8205 8.2904 20.2402C8.2904 20.6599 7.95668 21 7.54608 21C7.13549 21 6.80273 20.6599 6.80273 20.2402C6.80273 19.8205 7.13549 19.4794 7.54608 19.4794Z" stroke="white" stroke-width="1.5" stroke-linecap="round" stroke-linejoin="round"/>
<path fill-rule="evenodd" clip-rule="evenodd" d="M18.4943 19.4794C18.9049 19.4794 19.2386 19.8205 19.2386 20.2402C19.2386 20.6599 18.9049 21 18.4943 21C18.0837 21 17.75 20.6599 17.75 20.2402C17.75 19.8205 18.0837 19.4794 18.4943 19.4794Z" stroke="white" stroke-width="1.5" stroke-linecap="round" stroke-linejoin="round"/>
<path d="M3 3L5.02377 3.35802L5.96074 14.7681C6.03664 15.698 6.79652 16.412 7.70917 16.412H18.3262C19.198 16.412 19.9374 15.7576 20.063 14.8745L20.9863 8.35247C21.1001 7.54791 20.4901 6.82788 19.6952 6.82788H5.34875" stroke="white" stroke-width="1.5" stroke-linecap="round" stroke-linejoin="round"/>
<path d="M14.0684 10.5036H16.7664" stroke="white" stroke-width="1.5" stroke-linecap="round" stroke-linejoin="round"/>
</svg>
