<svg width="24" height="24" viewBox="0 0 24 24" fill="none" xmlns="http://www.w3.org/2000/svg">
<path d="M15.0732 3H8.92683C5.12195 3 2 6.12195 2 9.92683C2 12.7561 3.65854 15.1951 6.29268 16.2683V19.5854C6.29268 19.878 6.4878 20.1707 6.78049 20.2683C6.87805 20.2683 6.97561 20.3659 7.07317 20.3659C7.26829 20.3659 7.46341 20.2683 7.56098 20.1707L10.7805 16.9512H15.0732C18.878 16.9512 22 13.8293 22 10.0244C22 6.21951 18.9756 3 15.0732 3ZM15.0732 15.4878H10.4878C10.2927 15.4878 10.0976 15.5854 10 15.6829L7.7561 17.9268V15.878C7.7561 15.5854 7.56098 15.2927 7.26829 15.1951C5.02439 14.4146 3.46341 12.3659 3.46341 10.0244C3.46341 6.90244 5.90244 4.46341 8.92683 4.46341H15.0732C18.0976 4.46341 20.5366 6.90244 20.5366 9.92683C20.5366 12.9512 18.0976 15.4878 15.0732 15.4878Z" fill="#643EFF"/>
<path d="M8.34163 11.1951C8.98821 11.1951 9.51236 10.6709 9.51236 10.0244C9.51236 9.37779 8.98821 8.85364 8.34163 8.85364C7.69505 8.85364 7.1709 9.37779 7.1709 10.0244C7.1709 10.6709 7.69505 11.1951 8.34163 11.1951Z" fill="#643EFF"/>
<path d="M12.0488 11.1951C12.6954 11.1951 13.2195 10.6709 13.2195 10.0244C13.2195 9.37779 12.6954 8.85364 12.0488 8.85364C11.4022 8.85364 10.8781 9.37779 10.8781 10.0244C10.8781 10.6709 11.4022 11.1951 12.0488 11.1951Z" fill="#643EFF"/>
<path d="M15.6585 8.85364C14.9756 8.85364 14.4878 9.439 14.4878 10.0244C14.4878 10.7073 15.0732 11.1951 15.6585 11.1951C16.3415 11.1951 16.8293 10.6097 16.8293 10.0244C16.9268 9.34144 16.3415 8.85364 15.6585 8.85364Z" fill="#643EFF"/>
</svg>
