<svg width="20" height="20" viewBox="0 0 20 20" fill="none" xmlns="http://www.w3.org/2000/svg">
<path fill-rule="evenodd" clip-rule="evenodd" d="M1.66669 5.09255C1.66669 5.60181 2.08335 6.01848 2.59261 6.01848H17.4074C17.9167 6.01848 18.3334 5.60181 18.3334 5.09255C18.3334 4.58329 17.9167 4.16663 17.4074 4.16663H2.59261C2.08335 4.16663 1.66669 4.58329 1.66669 5.09255ZM9.07429 15.2775H10.9261C11.4353 15.2775 11.852 14.8608 11.852 14.3515C11.852 13.8423 11.4353 13.4256 10.9261 13.4256H9.07429C8.56505 13.4256 8.14839 13.8423 8.14839 14.3515C8.14839 14.8608 8.56505 15.2775 9.07429 15.2775ZM14.6297 10.6482H5.3704C4.86114 10.6482 4.44448 10.2315 4.44448 9.72227C4.44448 9.21301 4.86114 8.79634 5.3704 8.79634H14.6297C15.1389 8.79634 15.5556 9.21301 15.5556 9.72227C15.5556 10.2315 15.1389 10.6482 14.6297 10.6482Z" fill="white"/>
</svg>
