<svg width="46" height="46" viewBox="0 0 46 46" fill="none" xmlns="http://www.w3.org/2000/svg">
<path d="M45.5 23C45.5 35.4264 35.4264 45.5 23 45.5C10.5736 45.5 0.5 35.4264 0.5 23C0.5 10.5736 10.5736 0.5 23 0.5C35.4264 0.5 45.5 10.5736 45.5 23Z" fill="black"/>
<path d="M34.9884 18.0912C32.663 13.238 30.1713 12.899 27.8516 14.0558C26.5825 14.6883 25.2688 15.4457 23.8508 15.4457H22.1503C20.7323 15.4457 19.4186 14.6883 18.1494 14.0558C15.8297 12.899 13.3379 13.238 11.0126 18.0912C8.68531 22.9449 7.40638 30.4749 9.72617 31.6318C10.3801 31.9575 11.2497 31.742 12.2137 31.1558C15.614 29.0881 19.0199 26.727 22.9996 26.727C26.9792 26.727 30.3851 29.0881 33.7854 31.1558C34.7494 31.742 35.619 31.9575 36.2729 31.6318C38.5945 30.4749 37.3138 22.9449 34.9884 18.0912ZM19.3282 21.1239C19.3282 21.1239 19.3282 21.124 19.3282 21.124C19.3281 21.32 19.1685 21.4789 18.972 21.4789C18.0315 21.4789 17.2691 22.2414 17.2691 23.1819V23.259C17.2691 23.455 17.1104 23.614 16.9139 23.614H16.3114H15.7087C15.5133 23.614 15.3536 23.455 15.3536 23.259V23.1818C15.3536 22.2413 14.5912 21.4789 13.6507 21.4789C13.4543 21.4789 13.2946 21.32 13.2946 21.1239V19.9194C13.2946 19.7234 13.4542 19.5645 13.6507 19.5645C14.5912 19.5645 15.3537 18.8021 15.3537 17.8616V17.784C15.3537 17.588 15.5133 17.429 15.7088 17.429H16.3115H16.9141C17.1105 17.429 17.2692 17.5879 17.2692 17.784V17.8616C17.2692 18.8021 18.0317 19.5645 18.9722 19.5645C19.1687 19.5645 19.3283 19.7234 19.3283 19.9194V21.1239C19.3283 21.1239 19.3283 21.1239 19.3282 21.1239ZM30.3403 18.0927C30.3403 18.7048 29.8549 19.2009 29.2542 19.2009C28.6534 19.2009 28.1679 18.7048 28.1679 18.0927C28.1679 17.4805 28.6535 16.9845 29.2542 16.9845C29.8549 16.9845 30.3403 17.4805 30.3403 18.0927ZM27.0138 21.4856C26.4131 21.4856 25.9276 20.9891 25.9276 20.377C25.9276 19.7658 26.4131 19.2693 27.0138 19.2693C27.6145 19.2693 28.1 19.7658 28.1 20.377C28.1 20.989 27.6145 21.4856 27.0138 21.4856ZM31.4986 21.4856C30.8978 21.4856 30.4124 20.9891 30.4124 20.377C30.4124 19.7658 30.8979 19.2693 31.4986 19.2693C32.0993 19.2693 32.5848 19.7658 32.5848 20.377C32.5848 20.989 32.0993 21.4856 31.4986 21.4856ZM29.2542 23.7703C28.6534 23.7703 28.1679 23.2743 28.1679 22.6622C28.1679 22.05 28.6535 21.554 29.2542 21.554C29.8549 21.554 30.3403 22.05 30.3403 22.6622C30.3403 23.2743 29.8549 23.7703 29.2542 23.7703Z" fill="#FF9900"/>
</svg>
