<svg width="24" height="24" viewBox="0 0 24 24" fill="none" xmlns="http://www.w3.org/2000/svg">
<g clip-path="url(#clip0)">
<path d="M24.0001 12.2756C24.0001 11.4599 23.9326 10.6397 23.7886 9.83722H12.2407V14.4582H18.8537C18.5793 15.9486 17.6975 17.2669 16.4064 18.1047V21.1031H20.3517C22.6685 19.013 24.0001 15.9265 24.0001 12.2756Z" fill="#4285F4"/>
<path d="M12.2409 24C15.5428 24 18.3275 22.9374 20.3563 21.1031L16.4111 18.1047C15.3134 18.8367 13.8964 19.2512 12.2454 19.2512C9.05137 19.2512 6.34322 17.1391 5.37152 14.2995H1.30029V17.3904C3.37864 21.4426 7.61182 24 12.2409 24Z" fill="#34A853"/>
<path d="M5.36663 14.2995C4.85379 12.8091 4.85379 11.1953 5.36663 9.70494V6.614H1.2999C-0.436556 10.0048 -0.436556 13.9996 1.2999 17.3904L5.36663 14.2995Z" fill="#FBBC04"/>
<path d="M12.2409 4.74885C13.9863 4.7224 15.6733 5.36616 16.9374 6.54786L20.4328 3.12181C18.2195 1.0847 15.2819 -0.0352747 12.2409 -4.98258e-08C7.61182 -4.98258e-08 3.37864 2.55741 1.30029 6.614L5.36702 9.70494C6.33422 6.86092 9.04687 4.74885 12.2409 4.74885Z" fill="#EA4335"/>
</g>
<defs>
<clipPath id="clip0">
<path d="M0 12C0 5.37258 5.37258 0 12 0C18.6274 0 24 5.37258 24 12C24 18.6274 18.6274 24 12 24C5.37258 24 0 18.6274 0 12Z" fill="white"/>
</clipPath>
</defs>
</svg>
