<svg width="192" height="44" viewBox="0 0 192 44" fill="none" xmlns="http://www.w3.org/2000/svg">
<path d="M44 22C44 34.1503 34.1503 44 22 44C9.84974 44 0 34.1503 0 22C0 9.84974 9.84974 0 22 0C34.1503 0 44 9.84974 44 22Z" fill="black"/>
<path d="M33.7221 17.6937C31.4483 12.9484 29.012 12.6169 26.7438 13.748C26.0558 14.0908 25.4648 14.5306 25.0353 15.107H18.9658C18.5364 14.5306 17.9453 14.0908 17.2573 13.748C14.989 12.6169 12.5527 12.9484 10.279 17.6937C8.00345 22.4395 6.75295 29.8022 9.02119 30.9334C10.5977 31.7188 13.4569 29.2861 15.8184 26.1376H28.1808C30.5423 29.2861 33.4015 31.7188 34.978 30.9334C37.248 29.8022 35.9958 22.4395 33.7221 17.6937ZM18.4098 20.659C18.4098 20.8508 18.2538 21.0062 18.0616 21.0062H16.3965V22.7467C16.3965 22.9383 16.2413 23.0938 16.0492 23.0938H15.4601H14.8708C14.6797 23.0938 14.5236 22.9383 14.5236 22.7467V21.0061H12.8585C12.6665 21.0061 12.5103 20.8507 12.5103 20.659V19.4813C12.5103 19.2896 12.6664 19.1343 12.8585 19.1343H14.5236V17.3933C14.5236 17.2017 14.6797 17.0462 14.8709 17.0462H15.4602H16.0494C16.2415 17.0462 16.3966 17.2016 16.3966 17.3933V19.1343H18.0617C18.2539 19.1343 18.4099 19.2897 18.4099 19.4813V20.659H18.4098ZM29.1773 17.6952C29.1773 18.2937 28.7026 18.7787 28.1152 18.7787C27.5278 18.7787 27.0531 18.2937 27.0531 17.6952C27.0531 17.0966 27.5279 16.6116 28.1152 16.6116C28.7026 16.6116 29.1773 17.0966 29.1773 17.6952ZM25.9247 21.0127C25.3373 21.0127 24.8626 20.5272 24.8626 19.9287C24.8626 19.3311 25.3373 18.8456 25.9247 18.8456C26.512 18.8456 26.9867 19.3311 26.9867 19.9287C26.9867 20.5272 26.512 21.0127 25.9247 21.0127ZM30.3098 21.0127C29.7224 21.0127 29.2477 20.5272 29.2477 19.9287C29.2477 19.3311 29.7224 18.8456 30.3098 18.8456C30.8971 18.8456 31.3718 19.3311 31.3718 19.9287C31.3718 20.5272 30.8972 21.0127 30.3098 21.0127ZM28.1152 23.2466C27.5278 23.2466 27.0531 22.7616 27.0531 22.1631C27.0531 21.5646 27.5279 21.0796 28.1152 21.0796C28.7026 21.0796 29.1773 21.5646 29.1773 22.1631C29.1773 22.7616 28.7026 23.2466 28.1152 23.2466Z" fill="#FF9900"/>
<path d="M57.7161 22C56.8177 22 55.9641 21.8903 55.1555 21.6708C54.3468 21.4513 53.6281 21.0562 52.9991 20.4856C52.3852 19.915 51.8985 19.1029 51.5391 18.0494C51.1797 16.9959 51 15.6278 51 13.9451C51 12.2917 51.1647 10.9456 51.4942 9.90672C51.8386 8.86785 52.3253 8.0631 52.9542 7.49246C53.5831 6.92181 54.3319 6.53406 55.2004 6.32922C56.0839 6.10974 57.0573 6 58.1205 6C58.6296 6 59.1837 6.02926 59.7826 6.08779C60.3966 6.14632 60.9881 6.21948 61.5571 6.30727C62.1262 6.39506 62.5904 6.48285 62.9498 6.57064L62.5455 9.35802C61.9465 9.28487 61.2352 9.21171 60.4116 9.13855C59.588 9.06539 58.7793 9.02881 57.9857 9.02881C57.2968 9.02881 56.7652 9.06539 56.3909 9.13855C56.0315 9.19707 55.7694 9.2995 55.6047 9.44582C55.3651 9.65066 55.148 10.1043 54.9533 10.8066C54.7586 11.4943 54.6613 12.5478 54.6613 13.9671C54.6613 15.0498 54.7212 15.9058 54.841 16.535C54.9608 17.1495 55.0956 17.6031 55.2453 17.8957C55.41 18.1884 55.5448 18.3932 55.6496 18.5103C55.7844 18.6273 56.024 18.7444 56.3684 18.8615C56.7128 18.9785 57.222 19.037 57.8958 19.037C58.5697 19.037 59.1163 18.9931 59.5356 18.9053V15.679L57.2444 15.5254V13.0453H62.9723V20.9904C62.9723 20.9904 62.7327 21.0782 62.2535 21.2538C61.7893 21.4147 61.1603 21.5757 60.3667 21.7366C59.573 21.9122 58.6895 22 57.7161 22Z" fill="white"/>
<path d="M64.3266 21.7147L68.6618 6.28532H73.2441L77.5792 21.7147H73.9404L73.0868 18.2908H68.819L67.9655 21.7147H64.3266ZM69.4704 15.3937H72.4354L71.0203 9.48971H70.8855L69.4704 15.3937Z" fill="white"/>
<path d="M79.1345 21.7147L79.6961 6.28532H84.211L86.839 15.0864H86.9738L89.6692 6.28532H94.1167L94.7007 21.7147H91.1966L91.309 10.1481H91.1742L88.7483 18.4883H85.087L82.6611 10.1481H82.5263L82.6386 21.7147H79.1345Z" fill="white"/>
<path d="M98.2446 21.7147V6.28532H107.724V9.22634L101.771 9.16049L101.659 12.4527H107.162V15.3278H101.659L101.771 18.8176L107.724 18.7737V21.7147H98.2446Z" fill="white"/>
<path d="M110.616 21.7147L110.706 14.6036L110.616 6.28532H114.165L114.098 13.155L114.165 21.7147H110.616Z" fill="white"/>
<path d="M117.899 21.7147V6.28532H122.414L127.266 17.5665H127.4L127.086 6.28532H130.298V21.7147H125.783L120.931 10.4115H120.796L121.111 21.7147H117.899Z" fill="white"/>
<path d="M139.728 22C138.47 22 137.354 21.7439 136.381 21.2318C135.408 20.7051 134.637 19.8711 134.067 18.7298C133.513 17.5738 133.236 16.0448 133.236 14.1427C133.236 12.46 133.401 11.0846 133.731 10.0165C134.075 8.94833 134.554 8.12894 135.168 7.5583C135.782 6.97302 136.501 6.57064 137.324 6.35117C138.148 6.11705 139.039 6 139.997 6C140.387 6 140.866 6.02926 141.435 6.08779C142.004 6.13169 142.573 6.19753 143.142 6.28532C143.726 6.35848 144.205 6.44627 144.58 6.5487L144.198 9.35802C144.018 9.32876 143.741 9.2995 143.367 9.27023C142.992 9.24097 142.588 9.20439 142.154 9.16049C141.72 9.1166 141.315 9.08733 140.941 9.0727C140.581 9.04344 140.312 9.02881 140.132 9.02881C139.518 9.02881 139.032 9.06539 138.672 9.13855C138.328 9.19707 138.073 9.29218 137.908 9.42387C137.714 9.57019 137.542 9.82625 137.392 10.192C137.242 10.5432 137.122 11.0407 137.032 11.6845C136.943 12.3283 136.898 13.1696 136.898 14.2085C136.898 15.4961 137.017 16.513 137.257 17.2593C137.497 17.9909 137.744 18.4518 137.998 18.642C138.163 18.759 138.373 18.8541 138.627 18.9273C138.882 19.0005 139.204 19.037 139.593 19.037C140.072 19.037 140.574 18.9785 141.098 18.8615C141.637 18.7444 142.139 18.6127 142.603 18.4664C143.067 18.3054 143.449 18.1664 143.749 18.0494C144.048 17.9323 144.198 17.8738 144.198 17.8738L145.209 20.4856C145.209 20.4856 145.074 20.5661 144.804 20.727C144.535 20.8733 144.153 21.0489 143.659 21.2538C143.165 21.444 142.581 21.6123 141.907 21.7586C141.248 21.9195 140.522 22 139.728 22Z" fill="white"/>
<path d="M153.86 22C152.947 22 152.078 21.8829 151.255 21.6488C150.446 21.4147 149.727 21.005 149.098 20.4198C148.484 19.8345 147.998 19.0224 147.638 17.9835C147.294 16.93 147.122 15.5912 147.122 13.9671C147.122 12.3429 147.294 11.0114 147.638 9.97257C147.998 8.9337 148.484 8.12894 149.098 7.5583C149.727 6.97302 150.446 6.57064 151.255 6.35117C152.078 6.11705 152.947 6 153.86 6C154.789 6 155.657 6.11705 156.466 6.35117C157.274 6.57064 157.986 6.97302 158.6 7.5583C159.229 8.12894 159.715 8.9337 160.06 9.97257C160.419 11.0114 160.599 12.3429 160.599 13.9671C160.599 15.5912 160.419 16.93 160.06 17.9835C159.715 19.0224 159.229 19.8345 158.6 20.4198C157.986 21.005 157.274 21.4147 156.466 21.6488C155.657 21.8829 154.789 22 153.86 22ZM153.86 18.9712C154.579 18.9712 155.163 18.8541 155.612 18.62C156.061 18.3713 156.391 17.8957 156.601 17.1934C156.825 16.4765 156.938 15.4156 156.938 14.011C156.938 12.9428 156.878 12.0796 156.758 11.4211C156.638 10.7627 156.451 10.2652 156.196 9.92867C155.957 9.5775 155.642 9.34339 155.253 9.22634C154.864 9.09465 154.399 9.02881 153.86 9.02881C153.321 9.02881 152.857 9.09465 152.468 9.22634C152.078 9.34339 151.756 9.5775 151.502 9.92867C151.262 10.2652 151.082 10.7627 150.963 11.4211C150.843 12.0796 150.783 12.9428 150.783 14.011C150.783 15.0791 150.843 15.9424 150.963 16.6008C151.082 17.2446 151.27 17.7421 151.524 18.0933C151.779 18.4298 152.093 18.6639 152.468 18.7956C152.857 18.9127 153.321 18.9712 153.86 18.9712Z" fill="white"/>
<path d="M163.411 21.7147L163.972 6.28532H168.487L171.115 15.0864H171.25L173.946 6.28532H178.393L178.977 21.7147H175.473L175.585 10.1481H175.451L173.025 18.4883H169.363L166.937 10.1481H166.803L166.915 21.7147H163.411Z" fill="white"/>
<path d="M182.521 21.7147V6.28532H192V9.22634L186.048 9.16049L185.935 12.4527H191.438V15.3278H185.935L186.048 18.8176L192 18.7737V21.7147H182.521Z" fill="white"/>
<path d="M50 36.5C50 32.3578 53.2437 29 57.2449 29H184.755C188.756 29 192 32.3578 192 36.5C192 40.6421 188.756 44 184.755 44H57.2449C53.2436 44 50 40.6421 50 36.5Z" fill="#FF9900"/>
<path d="M56.7422 32.3906L59.0664 38.1914L61.3906 32.3906H62.6064V39.5H61.6689V36.7314L61.7568 33.7431L59.4229 39.5H58.7051L56.376 33.7578L56.4688 36.7314V39.5H55.5312V32.3906H56.7422Z" fill="white"/>
<path d="M67.3818 39.5C67.3298 39.3958 67.2874 39.2103 67.2549 38.9433C66.835 39.3795 66.3337 39.5976 65.751 39.5976C65.2301 39.5976 64.8021 39.4512 64.4668 39.1582C64.1348 38.862 63.9688 38.4876 63.9688 38.0351C63.9688 37.485 64.1771 37.0586 64.5938 36.7558C65.0137 36.4499 65.6029 36.2969 66.3613 36.2969H67.2402V35.8818C67.2402 35.5661 67.1458 35.3154 66.957 35.1299C66.7682 34.9411 66.4899 34.8467 66.1221 34.8467C65.7998 34.8467 65.5296 34.928 65.3115 35.0908C65.0934 35.2536 64.9844 35.4505 64.9844 35.6816H64.0762C64.0762 35.418 64.1689 35.164 64.3545 34.9199C64.5433 34.6725 64.7972 34.4772 65.1162 34.334C65.4385 34.1907 65.7917 34.1191 66.1758 34.1191C66.7845 34.1191 67.2614 34.2721 67.6064 34.5781C67.9515 34.8808 68.1305 35.2991 68.1436 35.833V38.2646C68.1436 38.7497 68.2054 39.1354 68.3291 39.4219V39.5H67.3818ZM65.8828 38.8115C66.166 38.8115 66.4346 38.7383 66.6885 38.5918C66.9424 38.4453 67.1263 38.2549 67.2402 38.0205V36.9365H66.5322C65.4255 36.9365 64.8721 37.2604 64.8721 37.9082C64.8721 38.1914 64.9665 38.4127 65.1553 38.5723C65.3441 38.7318 65.5866 38.8115 65.8828 38.8115Z" fill="white"/>
<path d="M72.9727 34.9639H70.5361V39.5H69.6279V34.2168H72.9727V34.9639Z" fill="white"/>
<path d="M77.0205 39.5C76.9684 39.3958 76.9261 39.2103 76.8936 38.9433C76.4736 39.3795 75.9723 39.5976 75.3896 39.5976C74.8688 39.5976 74.4408 39.4512 74.1055 39.1582C73.7734 38.862 73.6074 38.4876 73.6074 38.0351C73.6074 37.485 73.8158 37.0586 74.2324 36.7558C74.6523 36.4499 75.2415 36.2969 76 36.2969H76.8789V35.8818C76.8789 35.5661 76.7845 35.3154 76.5957 35.1299C76.4069 34.9411 76.1286 34.8467 75.7607 34.8467C75.4385 34.8467 75.1683 34.928 74.9502 35.0908C74.7321 35.2536 74.623 35.4505 74.623 35.6816H73.7148C73.7148 35.418 73.8076 35.164 73.9932 34.9199C74.182 34.6725 74.4359 34.4772 74.7549 34.334C75.0771 34.1907 75.4303 34.1191 75.8145 34.1191C76.4232 34.1191 76.9001 34.2721 77.2451 34.5781C77.5902 34.8808 77.7692 35.2991 77.7822 35.833V38.2646C77.7822 38.7497 77.8441 39.1354 77.9678 39.4219V39.5H77.0205ZM75.5215 38.8115C75.8047 38.8115 76.0732 38.7383 76.3271 38.5918C76.5811 38.4453 76.765 38.2549 76.8789 38.0205V36.9365H76.1709C75.0641 36.9365 74.5107 37.2604 74.5107 37.9082C74.5107 38.1914 74.6051 38.4127 74.7939 38.5723C74.9827 38.7318 75.2253 38.8115 75.5215 38.8115Z" fill="white"/>
<path d="M82.1035 35.6621C82.1035 35.4147 82.0091 35.2194 81.8203 35.0762C81.6315 34.9297 81.3727 34.8564 81.0439 34.8564C80.7249 34.8564 80.458 34.9394 80.2432 35.1055C80.0316 35.2715 79.9258 35.4668 79.9258 35.6914H79.0273C79.0273 35.2324 79.2194 34.8564 79.6035 34.5635C79.9876 34.2705 80.4678 34.124 81.0439 34.124C81.6624 34.124 82.1442 34.2575 82.4893 34.5244C82.8343 34.7881 83.0068 35.1657 83.0068 35.6572C83.0068 35.8948 82.9352 36.1129 82.792 36.3115C82.6488 36.5101 82.4453 36.668 82.1816 36.7851C82.7969 36.9935 83.1045 37.4036 83.1045 38.0156C83.1045 38.5006 82.9173 38.8848 82.543 39.168C82.1686 39.4512 81.6689 39.5928 81.0439 39.5928C80.4352 39.5928 79.9323 39.4446 79.5352 39.1484C79.1413 38.8489 78.9443 38.4453 78.9443 37.9375H79.8428C79.8428 38.1946 79.9567 38.416 80.1846 38.6015C80.4157 38.7838 80.7021 38.875 81.0439 38.875C81.389 38.875 81.6673 38.7952 81.8789 38.6357C82.0905 38.4762 82.1963 38.2695 82.1963 38.0156C82.1963 37.7194 82.1068 37.5078 81.9277 37.3808C81.752 37.2506 81.4769 37.1855 81.1025 37.1855H80.1992V36.4238H81.1807C81.7959 36.4075 82.1035 36.1536 82.1035 35.6621Z" fill="white"/>
<path d="M87.6943 34.2168H88.5977V39.5H87.6943V35.6474L85.2578 39.5H84.3545V34.2168H85.2578V38.0742L87.6943 34.2168Z" fill="white"/>
<path d="M94.3643 39.5H93.4609V37.2441H91.0342V39.5H90.126V34.2168H91.0342V36.5068H93.4609V34.2168H94.3643V39.5Z" fill="white"/>
<path d="M98.3779 34.2168H99.2861V38.7627H101.718V34.2168H102.621V38.7627H103.251L103.163 41.0674H102.353V39.5H98.3779V34.2168Z" fill="white"/>
<path d="M107.646 34.2168H108.549V39.5H107.646V35.6474L105.209 39.5H104.306V34.2168H105.209V38.0742L107.646 34.2168Z" fill="white"/>
<path d="M109.804 36.956C109.804 36.0739 109.975 35.3805 110.316 34.876C110.658 34.3714 111.127 34.1191 111.723 34.1191C111.999 34.1191 112.242 34.1663 112.45 34.2607V32H113.354V34.29C113.581 34.1761 113.848 34.1191 114.154 34.1191C114.753 34.1191 115.224 34.3714 115.565 34.876C115.907 35.3805 116.078 36.1081 116.078 37.0586C116.078 37.8366 115.907 38.4551 115.565 38.914C115.227 39.373 114.76 39.6025 114.164 39.6025C113.848 39.6025 113.578 39.5504 113.354 39.4463V41.5312H112.45V39.4609C112.235 39.5553 111.99 39.6025 111.713 39.6025C111.12 39.6025 110.653 39.373 110.312 38.914C109.973 38.4551 109.804 37.8268 109.804 37.0293V36.956ZM115.175 36.956C115.175 36.292 115.061 35.7777 114.833 35.4131C114.605 35.0452 114.291 34.8613 113.891 34.8613C113.686 34.8613 113.507 34.8939 113.354 34.959V38.7822C113.5 38.8375 113.682 38.8652 113.9 38.8652C114.304 38.8652 114.617 38.709 114.838 38.3965C115.062 38.084 115.175 37.6038 115.175 36.956ZM110.707 37.0586C110.707 37.651 110.813 38.1002 111.024 38.4062C111.236 38.7122 111.54 38.8652 111.938 38.8652C112.126 38.8652 112.297 38.8359 112.45 38.7773V34.9443C112.313 34.889 112.146 34.8613 111.947 34.8613C111.55 34.8613 111.244 35.0387 111.029 35.3935C110.814 35.7484 110.707 36.3034 110.707 37.0586Z" fill="white"/>
<path d="M121.718 36.917C121.718 37.721 121.534 38.3688 121.166 38.8603C120.798 39.3519 120.3 39.5976 119.672 39.5976C119.031 39.5976 118.526 39.3942 118.158 38.9873V41.5312H117.255V34.2168H118.08L118.124 34.8027C118.492 34.347 119.003 34.1191 119.657 34.1191C120.292 34.1191 120.793 34.3584 121.161 34.8369C121.532 35.3154 121.718 35.9811 121.718 36.834V36.917ZM120.814 36.8144C120.814 36.2187 120.688 35.7484 120.434 35.4033C120.18 35.0583 119.831 34.8857 119.389 34.8857C118.842 34.8857 118.432 35.1282 118.158 35.6133V38.1377C118.428 38.6195 118.842 38.8603 119.398 38.8603C119.831 38.8603 120.175 38.6894 120.429 38.3476C120.686 38.0026 120.814 37.4915 120.814 36.8144Z" fill="white"/>
<path d="M122.631 36.8096C122.631 36.292 122.732 35.8265 122.934 35.4131C123.139 34.9997 123.422 34.6806 123.783 34.456C124.148 34.2314 124.563 34.1191 125.028 34.1191C125.748 34.1191 126.329 34.3681 126.771 34.8662C127.217 35.3642 127.44 36.0267 127.44 36.8535V36.917C127.44 37.4313 127.341 37.8935 127.143 38.3037C126.947 38.7106 126.666 39.028 126.298 39.2558C125.933 39.4837 125.513 39.5976 125.038 39.5976C124.322 39.5976 123.741 39.3486 123.295 38.8506C122.852 38.3525 122.631 37.6933 122.631 36.873V36.8096ZM123.539 36.917C123.539 37.5029 123.674 37.9733 123.944 38.3281C124.218 38.6829 124.582 38.8603 125.038 38.8603C125.497 38.8603 125.862 38.6813 126.132 38.3232C126.402 37.9619 126.537 37.4573 126.537 36.8096C126.537 36.2301 126.399 35.7614 126.122 35.4033C125.849 35.042 125.484 34.8613 125.028 34.8613C124.582 34.8613 124.223 35.0387 123.949 35.3935C123.676 35.7484 123.539 36.2562 123.539 36.917Z" fill="white"/>
<path d="M128.656 39.5V34.2168H130.717C131.42 34.2168 131.959 34.3405 132.333 34.5879C132.711 34.832 132.899 35.1917 132.899 35.667C132.899 35.9111 132.826 36.1325 132.68 36.331C132.533 36.5264 132.317 36.6761 132.03 36.7803C132.349 36.8551 132.605 37.0016 132.797 37.2197C132.992 37.4378 133.09 37.6982 133.09 38.001C133.09 38.486 132.911 38.8571 132.553 39.1142C132.198 39.3714 131.695 39.5 131.044 39.5H128.656ZM129.56 37.1806V38.7724H131.054C131.431 38.7724 131.713 38.7025 131.898 38.5625C132.087 38.4225 132.182 38.2256 132.182 37.9717C132.182 37.4443 131.794 37.1806 131.02 37.1806H129.56ZM129.56 36.458H130.727C131.573 36.458 131.996 36.2106 131.996 35.7158C131.996 35.221 131.596 34.9655 130.795 34.9492H129.56V36.458Z" fill="white"/>
<path d="M135.272 36.0381H136.645C137.243 36.0446 137.717 36.2008 138.065 36.5068C138.414 36.8128 138.588 37.2278 138.588 37.7519C138.588 38.2793 138.409 38.7025 138.051 39.0215C137.693 39.3405 137.211 39.5 136.605 39.5H134.369V34.2168H135.272V36.0381ZM140.473 39.5H139.564V34.2168H140.473V39.5ZM135.272 36.7754V38.7627H136.615C136.954 38.7627 137.216 38.6764 137.401 38.5039C137.587 38.3281 137.68 38.0889 137.68 37.7861C137.68 37.4931 137.589 37.2539 137.406 37.0683C137.227 36.8795 136.975 36.7819 136.649 36.7754H135.272Z" fill="white"/>
<path d="M143.822 36.1455L144.994 34.2168H146.049L144.32 36.8291L146.103 39.5H145.058L143.837 37.5224L142.616 39.5H141.566L143.349 36.8291L141.62 34.2168H142.665L143.822 36.1455Z" fill="white"/>
<path d="M153.417 34.9492H151.645V39.5H150.741V34.9492H149.003V34.2168H153.417V34.9492Z" fill="white"/>
<path d="M153.852 36.8096C153.852 36.292 153.952 35.8265 154.154 35.4131C154.359 34.9997 154.643 34.6806 155.004 34.456C155.368 34.2314 155.784 34.1191 156.249 34.1191C156.968 34.1191 157.549 34.3681 157.992 34.8662C158.438 35.3642 158.661 36.0267 158.661 36.8535V36.917C158.661 37.4313 158.562 37.8935 158.363 38.3037C158.168 38.7106 157.886 39.028 157.519 39.2558C157.154 39.4837 156.734 39.5976 156.259 39.5976C155.543 39.5976 154.962 39.3486 154.516 38.8506C154.073 38.3525 153.852 37.6933 153.852 36.873V36.8096ZM154.76 36.917C154.76 37.5029 154.895 37.9733 155.165 38.3281C155.438 38.6829 155.803 38.8603 156.259 38.8603C156.718 38.8603 157.082 38.6813 157.353 38.3232C157.623 37.9619 157.758 37.4573 157.758 36.8096C157.758 36.2301 157.619 35.7614 157.343 35.4033C157.069 35.042 156.705 34.8613 156.249 34.8613C155.803 34.8613 155.443 35.0387 155.17 35.3935C154.896 35.7484 154.76 36.2562 154.76 36.917Z" fill="white"/>
<path d="M159.877 39.5V34.2168H161.938C162.641 34.2168 163.179 34.3405 163.554 34.5879C163.931 34.832 164.12 35.1917 164.12 35.667C164.12 35.9111 164.047 36.1325 163.9 36.331C163.754 36.5264 163.537 36.6761 163.251 36.7803C163.57 36.8551 163.826 37.0016 164.018 37.2197C164.213 37.4378 164.311 37.6982 164.311 38.001C164.311 38.486 164.132 38.8571 163.773 39.1142C163.419 39.3714 162.916 39.5 162.265 39.5H159.877ZM160.78 37.1806V38.7724H162.274C162.652 38.7724 162.934 38.7025 163.119 38.5625C163.308 38.4225 163.402 38.2256 163.402 37.9717C163.402 37.4443 163.015 37.1806 162.24 37.1806H160.78ZM160.78 36.458H161.947C162.794 36.458 163.217 36.2106 163.217 35.7158C163.217 35.221 162.816 34.9655 162.016 34.9492H160.78V36.458Z" fill="white"/>
<path d="M168.769 39.5C168.716 39.3958 168.674 39.2103 168.642 38.9433C168.222 39.3795 167.72 39.5976 167.138 39.5976C166.617 39.5976 166.189 39.4512 165.854 39.1582C165.521 38.862 165.355 38.4876 165.355 38.0351C165.355 37.485 165.564 37.0586 165.98 36.7558C166.4 36.4499 166.99 36.2969 167.748 36.2969H168.627V35.8818C168.627 35.5661 168.533 35.3154 168.344 35.1299C168.155 34.9411 167.877 34.8467 167.509 34.8467C167.187 34.8467 166.916 34.928 166.698 35.0908C166.48 35.2536 166.371 35.4505 166.371 35.6816H165.463C165.463 35.418 165.556 35.164 165.741 34.9199C165.93 34.6725 166.184 34.4772 166.503 34.334C166.825 34.1907 167.178 34.1191 167.562 34.1191C168.171 34.1191 168.648 34.2721 168.993 34.5781C169.338 34.8808 169.517 35.2991 169.53 35.833V38.2646C169.53 38.7497 169.592 39.1354 169.716 39.4219V39.5H168.769ZM167.27 38.8115C167.553 38.8115 167.821 38.7383 168.075 38.5918C168.329 38.4453 168.513 38.2549 168.627 38.0205V36.9365H167.919C166.812 36.9365 166.259 37.2604 166.259 37.9082C166.259 38.1914 166.353 38.4127 166.542 38.5723C166.731 38.7318 166.973 38.8115 167.27 38.8115Z" fill="white"/>
<path d="M175.409 36.917C175.409 37.721 175.225 38.3688 174.857 38.8603C174.49 39.3519 173.992 39.5976 173.363 39.5976C172.722 39.5976 172.217 39.3942 171.85 38.9873V41.5312H170.946V34.2168H171.771L171.815 34.8027C172.183 34.347 172.694 34.1191 173.349 34.1191C173.983 34.1191 174.485 34.3584 174.853 34.8369C175.224 35.3154 175.409 35.9811 175.409 36.834V36.917ZM174.506 36.8144C174.506 36.2187 174.379 35.7484 174.125 35.4033C173.871 35.0583 173.523 34.8857 173.08 34.8857C172.533 34.8857 172.123 35.1282 171.85 35.6133V38.1377C172.12 38.6195 172.533 38.8603 173.09 38.8603C173.523 38.8603 173.866 38.6894 174.12 38.3476C174.377 38.0026 174.506 37.4915 174.506 36.8144Z" fill="white"/>
<path d="M176.322 36.8096C176.322 36.292 176.423 35.8265 176.625 35.4131C176.83 34.9997 177.113 34.6806 177.475 34.456C177.839 34.2314 178.254 34.1191 178.72 34.1191C179.439 34.1191 180.02 34.3681 180.463 34.8662C180.909 35.3642 181.132 36.0267 181.132 36.8535V36.917C181.132 37.4313 181.033 37.8935 180.834 38.3037C180.639 38.7106 180.357 39.028 179.989 39.2558C179.625 39.4837 179.205 39.5976 178.729 39.5976C178.013 39.5976 177.432 39.3486 176.986 38.8506C176.544 38.3525 176.322 37.6933 176.322 36.873V36.8096ZM177.23 36.917C177.23 37.5029 177.366 37.9733 177.636 38.3281C177.909 38.6829 178.274 38.8603 178.729 38.8603C179.188 38.8603 179.553 38.6813 179.823 38.3232C180.093 37.9619 180.229 37.4573 180.229 36.8096C180.229 36.2301 180.09 35.7614 179.813 35.4033C179.54 35.042 179.175 34.8613 178.72 34.8613C178.274 34.8613 177.914 35.0387 177.641 35.3935C177.367 35.7484 177.23 36.2562 177.23 36.917Z" fill="white"/>
<path d="M182.348 39.5V34.2168H184.408C185.111 34.2168 185.65 34.3405 186.024 34.5879C186.402 34.832 186.591 35.1917 186.591 35.667C186.591 35.9111 186.518 36.1325 186.371 36.331C186.225 36.5264 186.008 36.6761 185.722 36.7803C186.041 36.8551 186.296 37.0016 186.488 37.2197C186.684 37.4378 186.781 37.6982 186.781 38.001C186.781 38.486 186.602 38.8571 186.244 39.1142C185.889 39.3714 185.386 39.5 184.735 39.5H182.348ZM183.251 37.1806V38.7724H184.745C185.123 38.7724 185.404 38.7025 185.59 38.5625C185.779 38.4225 185.873 38.2256 185.873 37.9717C185.873 37.4443 185.486 37.1806 184.711 37.1806H183.251ZM183.251 36.458H184.418C185.264 36.458 185.688 36.2106 185.688 35.7158C185.688 35.221 185.287 34.9655 184.486 34.9492H183.251V36.458Z" fill="white"/>
</svg>
