<svg width="90" height="28" viewBox="0 0 90 28" fill="none" xmlns="http://www.w3.org/2000/svg">
<g clip-path="url(#clip0)">
<path d="M38.9134 17.7247V14.4509C38.9134 13.2155 38.1362 12.384 36.8854 12.3731C36.5292 12.3497 36.1733 12.4237 35.8548 12.5872C35.5363 12.7507 35.267 12.9979 35.0748 13.3028C34.8997 13.0069 34.6491 12.7644 34.3494 12.6007C34.0496 12.4371 33.712 12.3584 33.3719 12.3731C33.0757 12.3586 32.7809 12.4226 32.5167 12.5589C32.2524 12.6951 32.0277 12.8989 31.8648 13.1501V12.4953H30.7432V17.7247H31.8756V14.8285C31.8756 13.9205 32.3708 13.4403 33.1372 13.4403C33.9036 13.4403 34.2589 13.9314 34.2589 14.8175V17.7247H35.3848V14.8285C35.3848 13.9205 35.9015 13.4403 36.6464 13.4403C37.3913 13.4403 37.7788 13.9314 37.7788 14.8175V17.7247H38.9134ZM55.6695 12.4997H53.8373V10.9151H52.7049V12.4997H51.6586V13.5386H52.7049V15.9197C52.7049 17.1333 53.1678 17.8557 54.494 17.8557C54.9893 17.8573 55.4751 17.7174 55.8955 17.4519L55.5726 16.4785C55.2716 16.6602 54.9302 16.7616 54.5801 16.7731C54.0203 16.7731 53.8352 16.4239 53.8352 15.9001V13.5386H55.6673L55.6695 12.4997ZM65.2348 12.3687C64.9613 12.3606 64.6908 12.4275 64.4516 12.5624C64.2125 12.6972 64.0138 12.895 63.8763 13.1348V12.4997H62.7654V17.7247H63.8871V14.7957C63.8871 13.9227 64.2531 13.4513 64.9872 13.4513C65.2274 13.4477 65.4659 13.4922 65.6891 13.5822L66.0335 12.5106C65.7772 12.4176 65.5071 12.3696 65.2348 12.3687ZM50.7738 12.9143C50.1387 12.5319 49.4086 12.3425 48.6704 12.3687C47.3657 12.3687 46.5175 13.0038 46.5175 14.0406C46.5175 14.8939 47.1418 15.4178 48.2958 15.5814L48.8232 15.6578C49.4368 15.7451 49.7296 15.9088 49.7296 16.2035C49.7296 16.6073 49.3206 16.8386 48.5541 16.8386C47.9358 16.8585 47.3289 16.6663 46.8318 16.293L46.3216 17.1769C46.9747 17.6399 47.7574 17.8779 48.5541 17.8557C50.0418 17.8557 50.9051 17.1442 50.9051 16.1511C50.9051 15.2322 50.2248 14.7521 49.1053 14.5884L48.5778 14.512C48.0934 14.4465 47.7037 14.3483 47.7037 13.9991C47.7037 13.6171 48.0697 13.388 48.6854 13.388C49.2496 13.3964 49.8023 13.5504 50.2915 13.8354L50.7738 12.9143ZM80.8111 12.3687C80.5376 12.3606 80.267 12.4275 80.0279 12.5624C79.7888 12.6972 79.59 12.895 79.4526 13.1348V12.4997H78.3417V17.7247H79.4633V14.7957C79.4633 13.9227 79.8293 13.4513 80.5635 13.4513C80.8036 13.4477 81.0421 13.4922 81.2653 13.5822L81.6098 12.5106C81.3534 12.4176 81.0833 12.3696 80.8111 12.3687ZM66.3672 15.1122C66.3672 16.6967 67.4566 17.8557 69.1165 17.8557C69.7896 17.8894 70.4508 17.6668 70.9701 17.2315L70.4319 16.3126C70.0442 16.612 69.5715 16.7765 69.0842 16.7819C68.1886 16.7819 67.532 16.114 67.532 15.11C67.532 14.106 68.1907 13.4491 69.0842 13.4382C69.5715 13.4435 70.0442 13.6081 70.4319 13.9074L70.9701 12.9886C70.4508 12.5532 69.7896 12.3306 69.1165 12.3643C67.4566 12.3643 66.3672 13.5233 66.3672 15.1078V15.1122ZM76.8691 15.1122V12.4931H75.7474V13.1282C75.5562 12.8781 75.3086 12.678 75.0255 12.5447C74.7423 12.4114 74.4318 12.3488 74.1198 12.3622C72.6752 12.3622 71.5364 13.5102 71.5364 15.1056C71.5364 16.7011 72.6688 17.8491 74.1198 17.8491C74.4318 17.8625 74.7423 17.7999 75.0255 17.6666C75.3086 17.5333 75.5562 17.3332 75.7474 17.0831V17.716H76.8691V15.1122ZM72.6968 15.1122C72.6968 14.1933 73.2888 13.4403 74.2598 13.4403C75.1877 13.4403 75.812 14.1628 75.812 15.1122C75.812 16.0616 75.1877 16.784 74.2598 16.784C73.2888 16.784 72.6968 16.0289 72.6968 15.1122ZM59.1636 12.3687C57.6566 12.3687 56.5974 13.484 56.5974 15.1122C56.5974 16.7731 57.6975 17.8557 59.239 17.8557C60.0086 17.883 60.7613 17.6219 61.3531 17.1223L60.8041 16.2799C60.3759 16.6272 59.8454 16.8193 59.2971 16.8255C58.5737 16.8255 57.9171 16.4872 57.7556 15.5465H61.5835C61.5942 15.4047 61.605 15.2628 61.605 15.11C61.605 13.4818 60.6018 12.3665 59.1572 12.3665L59.1636 12.3687ZM59.1421 13.3858C59.8655 13.3858 60.3283 13.8441 60.4468 14.6539H57.775C57.8934 13.8987 58.3455 13.3858 59.1442 13.3858H59.1421ZM87.2698 15.1122V10.4H86.1481V13.1326C85.9569 12.8824 85.7093 12.6823 85.4261 12.549C85.143 12.4158 84.8324 12.3532 84.5205 12.3665C83.0759 12.3665 81.937 13.5146 81.937 15.11C81.937 16.7055 83.0694 17.8535 84.5205 17.8535C84.8324 17.8668 85.143 17.8043 85.4261 17.671C85.7093 17.5377 85.9569 17.3376 86.1481 17.0874V17.7204H87.2698V15.1122ZM88.5809 17.2424C88.6252 17.2422 88.6692 17.2511 88.71 17.2686C88.7494 17.2856 88.7852 17.31 88.8155 17.3406C88.8456 17.3706 88.8697 17.4061 88.8866 17.4454C88.9039 17.486 88.9128 17.5298 88.9128 17.5741C88.9128 17.6184 88.9039 17.6622 88.8866 17.7029C88.8697 17.7421 88.8456 17.7776 88.8155 17.8077C88.7851 17.8381 88.7493 17.8625 88.71 17.8797C88.6692 17.8973 88.6252 17.9062 88.5809 17.9059C88.5152 17.9067 88.4508 17.8879 88.3957 17.8518C88.3405 17.8157 88.2971 17.7639 88.2709 17.7029C88.2537 17.6622 88.2448 17.6184 88.2448 17.5741C88.2448 17.5299 88.2537 17.4861 88.2709 17.4454C88.3045 17.3652 88.3679 17.3017 88.4474 17.2686C88.491 17.2502 88.5379 17.2413 88.5852 17.2424H88.5809ZM88.5809 17.8317C88.6149 17.8322 88.6486 17.8255 88.6799 17.812C88.7096 17.799 88.7366 17.7805 88.7596 17.7575C88.8074 17.7088 88.8343 17.6429 88.8343 17.5741C88.8343 17.5054 88.8074 17.4395 88.7596 17.3908C88.7367 17.3676 88.7096 17.3491 88.6799 17.3362C88.6486 17.3229 88.6149 17.3162 88.5809 17.3166C88.5462 17.3161 88.5118 17.3228 88.4797 17.3362C88.4413 17.3528 88.4075 17.3787 88.3812 17.4116C88.3549 17.4445 88.337 17.4834 88.3289 17.5249C88.3209 17.5664 88.3229 17.6093 88.3349 17.6499C88.347 17.6904 88.3686 17.7273 88.3979 17.7575C88.4214 17.7808 88.4492 17.7993 88.4797 17.812C88.5131 17.8261 88.549 17.8328 88.5852 17.8317H88.5809ZM88.6002 17.417C88.6325 17.4147 88.6645 17.424 88.6907 17.4432C88.7013 17.4518 88.7097 17.4628 88.7153 17.4753C88.7209 17.4878 88.7236 17.5015 88.723 17.5152C88.7234 17.527 88.7212 17.5388 88.7168 17.5497C88.7123 17.5606 88.7056 17.5704 88.6971 17.5785C88.6774 17.5963 88.6524 17.607 88.6261 17.6091L88.7251 17.7247H88.6476L88.555 17.6091H88.5249V17.7247H88.4603V17.4192L88.6002 17.417ZM88.5249 17.4737V17.5567H88.6002C88.6136 17.5606 88.6278 17.5606 88.6412 17.5567C88.646 17.5533 88.65 17.5487 88.6526 17.5434C88.6553 17.538 88.6565 17.5321 88.6562 17.5261C88.6565 17.5201 88.6553 17.5142 88.6526 17.5088C88.65 17.5035 88.646 17.4989 88.6412 17.4956C88.6278 17.4916 88.6136 17.4916 88.6002 17.4956L88.5249 17.4737ZM83.1017 15.1122C83.1017 14.1933 83.6938 13.4403 84.6647 13.4403C85.5926 13.4403 86.217 14.1628 86.217 15.1122C86.217 16.0616 85.5926 16.784 84.6647 16.784C83.6938 16.784 83.1017 16.0289 83.1017 15.1122ZM45.2322 15.1122V12.4931H44.1105V13.1282C43.9193 12.8802 43.6724 12.6819 43.3905 12.5498C43.1086 12.4177 42.7997 12.3556 42.4894 12.3687C41.0448 12.3687 39.9059 13.5167 39.9059 15.1122C39.9059 16.7077 41.0383 17.8557 42.4894 17.8557C42.8013 17.869 43.1119 17.8064 43.395 17.6732C43.6782 17.5399 43.9258 17.3398 44.117 17.0896V17.7225H45.2387L45.2322 15.1122ZM41.0599 15.1122C41.0599 14.1933 41.6519 13.4403 42.6229 13.4403C43.5508 13.4403 44.1751 14.1628 44.1751 15.1122C44.1751 16.0616 43.5508 16.784 42.6229 16.784C41.6519 16.784 41.0599 16.0311 41.0599 15.1122Z" fill="white"/>
<path d="M16.43 8.07874H9.64844V20.4333H16.43V8.07874Z" fill="#FF5F00"/>
<path d="M10.0793 14.2622C10.0783 13.0726 10.3444 11.8984 10.8572 10.8284C11.3701 9.75845 12.1163 8.82074 13.0395 8.08627C11.8961 7.17543 10.523 6.60902 9.07708 6.4518C7.63116 6.29458 6.17077 6.55288 4.86281 7.19718C3.55486 7.84149 2.45212 8.8458 1.68063 10.0953C0.909129 11.3449 0.5 12.7892 0.5 14.2633C0.5 15.7374 0.909129 17.1817 1.68063 18.4313C2.45212 19.6808 3.55486 20.6851 4.86281 21.3294C6.17077 21.9737 7.63116 22.232 9.07708 22.0748C10.523 21.9176 11.8961 21.3512 13.0395 20.4403C12.1161 19.7056 11.3696 18.7676 10.8568 17.6972C10.3439 16.6268 10.078 15.4522 10.0793 14.2622Z" fill="#EB001B"/>
<path d="M25.5808 14.259C25.5807 15.7333 25.1715 17.1778 24.3999 18.4275C23.6282 19.6772 22.5253 20.6816 21.2172 21.3258C19.9091 21.9701 18.4485 22.2283 17.0025 22.0708C15.5565 21.9133 14.1833 21.3466 13.04 20.4354C13.9628 19.7002 14.7089 18.7622 15.2219 17.6921C15.7349 16.6219 16.0014 15.4477 16.0014 14.2579C16.0014 13.0681 15.7349 11.8938 15.2219 10.8237C14.7089 9.75359 13.9628 8.81555 13.04 8.08036C14.1835 7.16904 15.5568 6.60229 17.003 6.44491C18.4492 6.28753 19.91 6.54588 21.2182 7.19041C22.5264 7.83494 23.6292 8.83964 24.4007 10.0896C25.1722 11.3396 25.5811 12.7845 25.5808 14.259Z" fill="#F79E1B"/>
<path d="M24.8353 19.1234V18.8707H24.9364V18.8207H24.6846V18.8729H24.7858V19.1255L24.8353 19.1234ZM25.3326 19.1234V18.8185H25.2658L25.1754 19.0362L25.085 18.8185H25.0053V19.1234H25.0505V18.8947L25.1345 19.0929H25.1926L25.2766 18.8947V19.1255L25.3326 19.1234Z" fill="#F79E1B"/>
</g>
<defs>
<clipPath id="clip0">
<rect width="89" height="28" fill="white" transform="translate(0.5)"/>
</clipPath>
</defs>
</svg>
