<svg width="16" height="16" viewBox="0 0 16 16" fill="none" xmlns="http://www.w3.org/2000/svg">
<g opacity="0.5">
<path fill-rule="evenodd" clip-rule="evenodd" d="M10.5556 6.57831C9.82587 7.32758 8.93308 7.70735 7.90192 7.70735C6.87099 7.70735 5.9782 7.32746 5.2484 6.57843C4.51883 5.82928 4.14888 4.91252 4.14888 3.85355C4.14888 2.79483 4.51883 1.87807 5.2484 1.12892C5.97796 0.379764 6.87063 0 7.90192 0C8.93296 0 9.82575 0.379764 10.5554 1.12879C11.2851 1.87819 11.655 2.79495 11.655 3.85355C11.655 4.91252 11.285 5.82916 10.5556 6.57831ZM7.90192 0.937631C7.11065 0.937631 6.45396 1.21705 5.89415 1.79189C5.33423 2.36684 5.06199 3.04129 5.06199 3.85355C5.06199 4.66606 5.33423 5.3405 5.89415 5.91534C6.4542 6.49017 7.11089 6.76972 7.90192 6.76972C8.69306 6.76972 9.34987 6.49029 9.9098 5.91534C10.4696 5.34038 10.7418 4.66606 10.7418 3.85355C10.7418 3.04129 10.4696 2.36684 9.9098 1.79189C9.34987 1.21705 8.69306 0.937631 7.90192 0.937631Z" fill="white"/>
<path fill-rule="evenodd" clip-rule="evenodd" d="M14.3422 11.2922C14.4049 11.6513 14.4475 11.9914 14.4685 12.3032C14.4893 12.6079 14.4999 12.9259 14.5 13.2483C14.5 14.0837 14.2414 14.7601 13.7314 15.2584C13.2277 15.7505 12.5615 16 11.7514 16H4.24862C3.43822 16 2.77202 15.7505 2.26844 15.2584C1.75856 14.7598 1.5 14.0836 1.5 13.2484C1.5 12.9271 1.51046 12.6091 1.53115 12.3036C1.55219 11.9911 1.59463 11.6508 1.6574 11.2922C1.72064 10.9304 1.80207 10.5885 1.89944 10.2758C2.00025 9.95246 2.1372 9.63349 2.30636 9.3277C2.48183 9.01043 2.68821 8.73419 2.91978 8.50664C3.16218 8.26848 3.45879 8.0772 3.8014 7.93791C4.14294 7.799 4.52145 7.72856 4.9266 7.72856C5.08566 7.72856 5.23949 7.79558 5.53633 7.99419C5.7219 8.11833 5.93589 8.25994 6.17234 8.41509C6.3761 8.54864 6.65273 8.67376 6.99392 8.78692C7.32738 8.89764 7.66571 8.95379 7.99952 8.95379C8.33358 8.95379 8.67191 8.89764 9.00513 8.78692C9.34667 8.67364 9.62319 8.54851 9.8273 8.41497C10.066 8.25835 10.2799 8.11675 10.4627 7.99431C10.7598 7.7957 10.9136 7.72868 11.0727 7.72868C11.4777 7.72868 11.8563 7.799 12.198 7.93779C12.5409 8.07732 12.8373 8.26861 13.0795 8.50652C13.3111 8.73394 13.5175 9.01031 13.693 9.3277C13.8624 9.63349 13.9993 9.95258 14.1001 10.2757C14.1976 10.5883 14.279 10.9304 14.3422 11.2922ZM11.7513 15.0624C12.3273 15.0624 12.7691 14.9043 13.1019 14.5791C13.4282 14.2602 13.5868 13.8249 13.5869 13.2484C13.5868 12.9477 13.577 12.6518 13.5576 12.3687C13.5389 12.0904 13.5003 11.7838 13.4435 11.4577C13.3874 11.1366 13.3157 10.835 13.2305 10.5616C13.1489 10.3 13.0374 10.0406 12.8992 9.79096C12.7673 9.55267 12.6156 9.34845 12.4482 9.18402C12.2917 9.03021 12.0943 8.90411 11.8619 8.80963C11.6468 8.72222 11.4051 8.67437 11.1426 8.66717C11.1106 8.68462 11.0537 8.71807 10.9614 8.77972C10.7737 8.90545 10.5634 9.04461 10.3186 9.20526C10.0487 9.38202 9.70141 9.54132 9.28604 9.67914C8.862 9.81989 8.42916 9.89142 7.99964 9.89142C7.57013 9.89142 7.13741 9.81989 6.71312 9.67902C6.29811 9.54144 5.95075 9.38202 5.68113 9.2055C5.44194 9.04864 5.22558 8.90533 5.03787 8.77972C4.94562 8.71795 4.88867 8.68462 4.85669 8.66717C4.59433 8.67437 4.35264 8.72222 4.13759 8.80963C3.90506 8.90411 3.70772 9.03009 3.55115 9.18402C3.38377 9.34857 3.23208 9.5528 3.10024 9.79084C2.9621 10.0406 2.85071 10.2999 2.76904 10.5617C2.68393 10.8348 2.61236 11.1364 2.55613 11.4578C2.49919 11.7833 2.46079 12.0896 2.442 12.3684C2.42275 12.6526 2.41312 12.9486 2.41312 13.2484C2.41312 13.8248 2.5717 14.2602 2.89803 14.5792C3.23065 14.9043 3.67241 15.0624 4.24862 15.0624H11.7513Z" fill="white"/>
</g>
</svg>
