<svg width="62" height="28" viewBox="0 0 62 28" fill="none" xmlns="http://www.w3.org/2000/svg">
<g clip-path="url(#clip0)">
<path d="M14.7238 0C15.0738 0.192661 15.4556 0.16055 15.8056 0.224771C23.9517 1.86239 27.7701 10.7248 23.4744 17.9817C23.2198 18.4312 22.9334 18.8807 22.5834 19.2661C21.5015 16.7936 21.1197 16.4404 18.8604 15.6376C19.4014 15.445 20.1651 15.5734 20.8969 16.0229C21.2469 16.2156 21.3106 16.1835 21.406 15.7982C22.0106 13.133 21.5652 10.6284 20.2605 8.2844C18.8286 5.7156 16.7603 3.85321 13.9282 2.95413C9.53701 1.50917 5.46399 3.8211 4.31846 8.38073C2.85472 14.289 6.80045 20.2294 12.8145 21.0963C13.1964 21.1605 13.6737 21.3211 13.9282 21.1606C14.2146 21 13.8328 20.5183 13.8646 20.1651C13.8964 19.9404 13.8646 19.6835 13.8646 19.4587C13.9919 19.4266 13.9919 19.4908 14.0237 19.555C15.1056 21.2569 16.6966 22.0596 18.6058 22.3486C19.2423 22.445 19.8787 22.5092 20.4833 22.6697C23.1244 23.2156 25.1927 24.6284 26.5928 26.9725C26.7837 27.2615 27.0065 27.5826 26.911 28C26.8474 28 26.7837 28 26.7837 27.9679C24.7154 24.8211 21.6924 23.5688 18.0649 23.5688C17.3012 23.5688 16.5693 23.7615 15.8056 23.922C10.8735 24.8853 6.51407 23.7936 3.01382 20.0046C1.70918 18.5917 1.04095 16.7615 0.690923 14.8349C0.659102 14.6422 0.722743 14.4174 0.5 14.289C0.5 13.3578 0.5 12.4266 0.5 11.4954C0.690923 11.3991 0.627282 11.1743 0.659102 11.0138C1.5819 5.42661 6.00494 1.02752 11.5099 0.192661C11.7008 0.16055 11.9235 0.224771 12.0827 0.0321101C12.9418 -3.1101e-08 13.8328 0 14.7238 0Z" fill="#FF9900"/>
<path d="M46.0996 11.0779C45.5904 12.7476 45.0813 14.2889 44.6358 15.8302C44.5085 16.2477 44.3176 16.4082 43.904 16.3761C43.6176 16.344 43.4903 16.2477 43.4267 15.9587C42.7266 13.454 42.0266 10.9494 41.2947 8.47693C41.1992 8.09161 41.2629 7.96317 41.6765 7.96317C42.7902 7.96317 42.7902 7.96317 43.0766 9.08703C43.4267 10.532 43.8085 12.0091 44.1585 13.454C44.3494 13.3898 44.3176 13.1972 44.3813 13.0687C44.8586 11.5274 45.304 9.98612 45.7814 8.41271C45.845 8.15583 45.9086 7.93105 46.2587 7.93105C46.6087 7.93105 46.6723 8.15583 46.736 8.41271C47.2451 10.0825 47.7542 11.7522 48.2952 13.4219C48.5179 13.3256 48.4861 13.1008 48.5497 12.9403C48.9316 11.4311 49.3134 9.9219 49.6952 8.41271C49.7907 8.0595 50.7135 7.7705 50.9681 8.02739C51.0953 8.15583 50.9999 8.31638 50.9681 8.47693C50.268 10.9815 49.568 13.4862 48.8997 15.9908C48.8043 16.3119 48.6452 16.3761 48.3588 16.3761C48.0088 16.3761 47.8179 16.2798 47.7224 15.9265C47.1814 14.3531 46.6723 12.8118 46.0996 11.0779Z" fill="#2669BB"/>
<path d="M35.4706 12.1374C35.4069 13.9677 34.8342 15.509 33.084 16.3439C32.8295 16.4724 32.9249 16.6008 32.9886 16.7614C33.3704 17.5641 34.0705 17.9816 34.866 18.3027C35.1205 18.399 35.3751 18.4632 35.6297 18.5596C35.7888 18.6238 35.9161 18.7201 35.8842 18.9128C35.8524 19.1055 35.7251 19.2018 35.566 19.2018C35.2796 19.2339 34.9933 19.1697 34.7069 19.1055C33.275 18.7522 32.0021 18.1421 31.2703 16.7614C31.2066 16.6329 31.1112 16.5687 30.9839 16.5366C29.1383 16.2155 27.9609 14.5457 27.9609 12.2016C27.9609 11.5594 28.0564 10.9492 28.2473 10.3712C28.7883 8.76569 30.0611 7.83447 31.6839 7.83447C33.3068 7.83447 34.5796 8.73358 35.1524 10.3391C35.3751 10.885 35.5024 11.4951 35.4706 12.1374ZM33.8159 12.2016C33.8159 11.4951 33.7523 10.7887 33.4659 10.1144C33.1477 9.34369 32.6067 8.79781 31.7158 8.76569C30.9521 8.73358 30.2202 9.31158 29.9338 10.1465C29.4883 11.4951 29.4883 12.908 29.9974 14.2567C30.3157 15.0916 31.0157 15.6054 31.7476 15.5732C32.6385 15.509 33.1477 14.9952 33.4977 14.2246C33.7523 13.5824 33.8159 12.908 33.8159 12.2016Z" fill="#2669BB"/>
<path d="M37.6348 12.202C37.6348 10.9818 37.6348 9.72954 37.6348 8.50937C37.6348 8.15616 37.6984 7.99561 38.1121 7.99561C39.2577 7.99561 39.2577 7.99561 39.2577 9.15156C39.2577 11.3672 39.2577 13.5827 39.2577 15.7983C39.2577 16.2479 39.1622 16.4405 38.6849 16.4084C37.6348 16.3763 37.6348 16.4084 37.6348 15.3167C37.6348 14.2892 37.6348 13.2295 37.6348 12.202Z" fill="#2669BB"/>
<path d="M54.658 12.234C54.658 13.4542 54.658 14.6743 54.658 15.8945C54.658 16.2798 54.5307 16.4082 54.1488 16.4082C53.0352 16.4082 53.0352 16.4082 53.0352 15.2844C53.0352 13.0368 53.0352 10.757 53.0352 8.50935C53.0352 8.09193 53.1624 7.99561 53.5443 7.99561C54.658 7.99561 54.658 7.99561 54.658 9.11943C54.658 10.1469 54.658 11.1744 54.658 12.234Z" fill="#2669BB"/>
<path d="M46.449 21.1925C45.8444 21.1925 45.2398 21.1925 44.6352 21.1925C44.3806 21.1925 44.2852 21.0962 44.2852 20.8393C44.2852 19.9724 44.317 19.1055 44.2852 18.2386C44.2852 17.8854 44.4761 17.8854 44.6988 17.8854C44.9216 17.8854 45.1443 17.8533 45.1125 18.2065C45.0807 18.8486 45.1125 19.5229 45.1125 20.1651C45.0807 20.5825 45.3353 20.5183 45.5898 20.5183C45.8444 20.5183 46.099 20.6146 46.099 20.1651C46.0671 19.5229 46.1308 18.8807 46.099 18.2386C46.0671 17.8533 46.2899 17.8854 46.5445 17.8854C46.8308 17.8854 46.9581 17.9175 46.9263 18.2386C46.8945 18.8807 46.9263 19.5229 46.9263 20.1651C46.8945 20.5825 47.1809 20.5183 47.4354 20.5183C47.69 20.5183 47.9128 20.5825 47.8809 20.1651C47.8491 19.5229 47.8809 18.8807 47.8491 18.2386C47.8173 17.8533 48.0082 17.8533 48.2946 17.8533C48.5492 17.8533 48.7083 17.8854 48.7083 18.2065C48.6765 19.0413 48.6765 19.9082 48.7083 20.743C48.7083 21.0962 48.581 21.1283 48.2946 21.1283C47.6264 21.1604 47.0218 21.1925 46.449 21.1925Z" fill="#FF9900"/>
<path d="M54.9442 19.5549C54.9442 19.9724 54.9124 20.4219 54.9442 20.8394C54.976 21.1927 54.7533 21.1606 54.5305 21.1606C54.2759 21.1606 54.1168 21.1605 54.1168 20.8073C54.1487 20.1972 54.1168 19.5549 54.1168 18.9447C54.1168 18.6236 54.0214 18.4952 53.7032 18.4952C53.385 18.4952 53.2259 18.5594 53.2577 18.9126C53.2895 19.3943 53.2895 19.876 53.1622 20.3577C53.0349 20.7752 52.7804 21.0642 52.3667 21.1606C52.2394 21.1927 52.0167 21.289 51.9848 21.0642C51.953 20.8715 51.7939 20.6467 52.0803 20.5183C52.4303 20.3577 52.494 20.0045 52.5258 19.6833C52.5258 19.2016 52.5576 18.6878 52.5258 18.2061C52.5258 17.9813 52.5894 17.885 52.8122 17.885C53.4486 17.885 54.085 17.885 54.7214 17.885C54.976 17.885 55.0078 18.0135 55.0078 18.2061C54.9442 18.6557 54.9442 19.1053 54.9442 19.5549Z" fill="#FF9900"/>
<path d="M43.9354 19.5229C43.9354 20.5506 43.2671 21.2572 42.2807 21.2572C41.326 21.2572 40.626 20.5827 40.626 19.5871C40.626 18.5594 41.2942 17.8529 42.3125 17.8529C43.2989 17.8208 43.9354 18.4952 43.9354 19.5229ZM43.108 19.555C43.108 19.2981 43.0762 19.0733 42.9489 18.8485C42.8216 18.5916 42.5989 18.431 42.3125 18.431C42.0261 18.431 41.8034 18.5594 41.6761 18.8485C41.4533 19.2981 41.4533 19.7798 41.6761 20.2295C41.9625 20.7754 42.5989 20.7754 42.9171 20.2937C43.0444 20.0689 43.108 19.812 43.108 19.555Z" fill="#FF9900"/>
<path d="M50.8086 19.7475C50.5858 19.7475 50.3313 19.7475 50.1085 19.7475C49.6949 19.7153 49.7267 19.9401 49.8858 20.197C50.0449 20.4861 50.3313 20.5824 50.6495 20.6145C50.8722 20.6145 51.095 20.5824 51.3177 20.5503C51.4768 20.5182 51.6677 20.454 51.6995 20.7109C51.7632 20.9999 51.6359 21.0962 51.4131 21.1283C51.0631 21.1926 50.6813 21.2568 50.3313 21.1926C49.4085 21.0641 48.8675 20.3255 48.963 19.33C49.0585 18.3345 49.7585 17.7243 50.7131 17.7886C51.5086 17.8528 52.145 18.752 51.9541 19.5227C51.9223 19.6832 51.8268 19.7153 51.6677 19.7153C51.3813 19.7475 51.095 19.7475 50.8086 19.7475ZM50.4267 19.1694C50.5222 19.1694 50.6176 19.1694 50.7131 19.1694C50.8404 19.1373 51.0631 19.2658 51.1268 19.0731C51.1904 18.8804 51.0631 18.6877 50.9358 18.5593C50.8086 18.4308 50.6813 18.3987 50.4904 18.3987C50.1403 18.3987 49.7267 18.752 49.7903 19.0089C49.8858 19.3621 50.1722 19.1052 50.3949 19.1694C50.3949 19.2015 50.3949 19.1694 50.4267 19.1694Z" fill="#FF9900"/>
<path d="M38.8126 19.202C39.0036 18.9451 39.2263 18.7204 39.3854 18.4314C39.6718 17.8855 40.1173 17.7571 40.7219 17.9176C40.3719 18.303 40.0537 18.6562 39.7354 19.0094C39.5763 19.1699 39.4809 19.2662 39.7673 19.4268C40.3719 19.7479 40.4355 20.4543 40.6901 21.0001C40.7219 21.0964 40.6901 21.1286 40.5946 21.1607C40.2128 21.257 39.8946 21.1286 39.7354 20.7432C39.6082 20.39 39.5127 20.0368 39.1308 19.8763C38.8763 19.78 38.6535 19.7479 38.6853 20.1653C38.6853 20.3258 38.6535 20.5185 38.6853 20.679C38.749 21.0964 38.5581 21.1928 38.1762 21.1607C37.9535 21.1286 37.8262 21.0964 37.8262 20.8396C37.8262 19.9726 37.858 19.0736 37.8262 18.2066C37.8262 17.8534 38.0171 17.8855 38.2398 17.8855C38.4626 17.8855 38.6853 17.8534 38.6535 18.2066C38.6217 18.5277 38.6535 18.8488 38.6535 19.1378C38.7172 19.1699 38.7808 19.202 38.8126 19.202Z" fill="#FF9900"/>
<path d="M59.5592 19.2017C59.7501 18.9449 59.9728 18.7201 60.1319 18.4311C60.4183 17.8853 60.8638 17.7568 61.4684 17.9495C61.1184 18.3348 60.8002 18.688 60.482 19.0412C60.3229 19.2017 60.291 19.2981 60.5456 19.4586C61.1502 19.8118 61.2457 20.5182 61.5002 21.1282C60.7047 21.2567 60.6729 21.2888 60.4183 20.5824C60.291 20.2613 60.1638 19.9723 59.7819 19.8439C59.5592 19.7797 59.4001 19.8118 59.4319 20.1008C59.4319 20.2934 59.4001 20.4861 59.4319 20.6787C59.4955 21.0961 59.3046 21.1925 58.9227 21.1604C58.6682 21.1282 58.5727 21.0961 58.6045 20.8393C58.6045 19.9723 58.6364 19.0733 58.6045 18.2064C58.6045 17.8211 58.8273 17.9174 59.05 17.8853C59.3046 17.8853 59.4955 17.8853 59.4637 18.2385C59.4319 18.5596 59.4637 18.8806 59.4637 19.1696C59.4637 19.2017 59.4955 19.2017 59.5592 19.2017Z" fill="#FF9900"/>
<path d="M57.1398 19.7468C56.8852 19.7468 56.6307 19.7468 56.3761 19.7468C56.0261 19.7147 56.0579 19.9074 56.1852 20.1321C56.3761 20.5174 56.7261 20.6137 57.108 20.5816C57.3307 20.5816 57.5535 20.5495 57.7762 20.4852C57.9671 20.4531 58.0308 20.5495 58.0626 20.71C58.0944 20.8705 58.1262 20.9668 57.9353 21.0631C57.2989 21.3521 56.1852 21.2237 55.7397 20.7421C55.2624 20.2605 55.1669 19.3295 55.5169 18.6232C55.867 17.949 56.5988 17.6279 57.3307 17.8527C57.9353 18.0453 58.349 18.7195 58.2853 19.4579C58.2853 19.6505 58.2217 19.7468 57.999 19.7468C57.7126 19.7468 57.4262 19.7468 57.1398 19.7468ZM56.8216 19.169C56.9807 19.0405 57.3625 19.3937 57.458 19.0084C57.5216 18.6874 57.1398 18.3663 56.7579 18.3985C56.5988 18.3985 56.4397 18.4627 56.3443 18.5911C56.217 18.7195 56.0579 18.9121 56.1215 19.0726C56.1852 19.2974 56.4079 19.1369 56.567 19.169C56.6307 19.2011 56.7261 19.169 56.8216 19.169Z" fill="#FF9900"/>
<path d="M19.4335 21.1918C18.988 21.1918 18.5744 20.7104 18.6062 20.261C18.638 19.908 18.7971 19.6512 19.179 19.6512C19.6244 19.6191 20.0381 20.1005 20.0381 20.5499C20.0381 20.903 19.7835 21.1918 19.4335 21.1918Z" fill="#FF9900"/>
<path d="M21.9785 19.6835C21.9785 19.9083 21.9785 20.0689 21.8513 20.101C21.6924 20.1653 21.6288 20.0047 21.5652 19.9083C21.438 19.6835 21.3426 19.4587 21.279 19.2018C21.2472 19.0733 21.1836 18.9127 21.3426 18.8164C21.5016 18.72 21.6288 18.8485 21.6924 18.9769C21.8831 19.2018 21.9785 19.4587 21.9785 19.6835Z" fill="#FF9900"/>
</g>
<defs>
<clipPath id="clip0">
<rect width="61.0002" height="28" fill="white" transform="translate(0.5)"/>
</clipPath>
</defs>
</svg>
