<svg width="32" height="32" viewBox="0 0 32 32" fill="none" xmlns="http://www.w3.org/2000/svg">
<path d="M16.2337 0.78403L18.1953 0.0427863C18.4141 -0.0399006 18.6604 -0.000900872 18.8429 0.145348L20.4793 1.45652C20.6051 1.55727 20.7632 1.60871 20.9242 1.60109L23.0188 1.50227C23.2525 1.49127 23.4746 1.60446 23.603 1.79996L24.7543 3.55263C24.8427 3.68732 24.9773 3.78507 25.1327 3.82757L27.1554 4.38081C27.381 4.44256 27.5572 4.61875 27.6189 4.84437L28.1722 6.86704C28.2147 7.02248 28.3124 7.15704 28.4471 7.24548L30.1998 8.39672C30.3953 8.52515 30.5085 8.74721 30.4975 8.9809L30.3987 11.0756C30.3911 11.2366 30.4425 11.3947 30.5432 11.5204L31.8544 13.157C32.0006 13.3396 32.0396 13.5857 31.957 13.8045L31.2157 15.7662C31.1588 15.9168 31.1588 16.0832 31.2157 16.2339L31.957 18.1955C32.0396 18.4143 32.0006 18.6606 31.8544 18.8431L30.5432 20.4796C30.4425 20.6054 30.391 20.7636 30.3987 20.9245L30.4975 23.0192C30.5085 23.2528 30.3953 23.4749 30.1998 23.6033L28.4471 24.7546C28.3124 24.843 28.2147 24.9776 28.1722 25.133L27.6189 27.1557C27.5572 27.3813 27.381 27.5576 27.1554 27.6192L25.1327 28.1725C24.9773 28.215 24.8427 28.3127 24.7543 28.4474L23.603 30.2001C23.4746 30.3956 23.2525 30.5088 23.0188 30.4978L20.9242 30.399C20.7633 30.3914 20.6051 30.4428 20.4793 30.5435L18.8428 31.8547C18.6602 32.001 18.414 32.04 18.1952 31.9573L16.2336 31.216C16.0829 31.1591 15.9166 31.1591 15.7658 31.216L13.8042 31.9573C13.5854 32.04 13.3392 32.001 13.1567 31.8547L11.5201 30.5435C11.3944 30.4428 11.2362 30.3913 11.0753 30.399L8.98059 30.4978C8.7469 30.5088 8.52484 30.3956 8.3964 30.2001L7.24516 28.4474C7.15673 28.3127 7.02217 28.215 6.86673 28.1725L4.84406 27.6192C4.61844 27.5575 4.44219 27.3813 4.3805 27.1557L3.82725 25.133C3.78476 24.9776 3.68701 24.843 3.55232 24.7546L1.79965 23.6033C1.60415 23.4748 1.49096 23.2528 1.50196 23.0191L1.60077 20.9244C1.6084 20.7635 1.55696 20.6053 1.45621 20.4796L0.145285 18.8429C-0.000963382 18.6603 -0.0399631 18.4141 0.0427238 18.1953L0.783968 16.2337C0.840905 16.083 0.840905 15.9167 0.783968 15.766L0.0427238 13.8044C-0.0399631 13.5855 -0.000963382 13.3393 0.145285 13.1568L1.45646 11.5204C1.55721 11.3946 1.60865 11.2364 1.60102 11.0755L1.50221 8.98084C1.49121 8.74715 1.6044 8.52509 1.7999 8.39666L3.55257 7.24541C3.68726 7.15698 3.78501 7.02242 3.8275 6.86698L4.38075 4.84431C4.4425 4.61869 4.61869 4.44244 4.84431 4.38075L6.86698 3.82751C7.02242 3.78501 7.15698 3.68726 7.24541 3.55257L8.39665 1.7999C8.52509 1.6044 8.74715 1.49121 8.98084 1.50221L11.0755 1.60102C11.2364 1.60865 11.3946 1.55721 11.5204 1.45646L13.1569 0.145285C13.3395 -0.000963382 13.5857 -0.0399631 13.8045 0.0427238L15.7661 0.783968C15.9167 0.840967 16.083 0.840967 16.2337 0.78403Z" fill="#FF9900"/>
<path fill-rule="evenodd" clip-rule="evenodd" d="M18.1954 0.0427863L16.2337 0.78403C16.0831 0.840967 15.9167 0.840967 15.7661 0.783968L15.6279 0.73172V31.2682L15.7659 31.216C15.9166 31.1591 16.0829 31.1591 16.2336 31.216L18.1952 31.9573C18.414 32.04 18.6602 32.001 18.8428 31.8547L20.4793 30.5435C20.6051 30.4428 20.7633 30.3914 20.9242 30.399L23.0189 30.4978C23.2526 30.5088 23.4746 30.3956 23.6031 30.2001L24.7543 28.4474C24.8427 28.3127 24.9773 28.215 25.1327 28.1725L27.1554 27.6192C27.381 27.5576 27.5572 27.3813 27.619 27.1557L28.1722 25.133C28.2147 24.9776 28.3125 24.843 28.4471 24.7546L30.1998 23.6033C30.3953 23.4749 30.5085 23.2528 30.4975 23.0192L30.3987 20.9245C30.3911 20.7636 30.4425 20.6054 30.5433 20.4796L31.8544 18.8431C32.0007 18.6606 32.0397 18.4143 31.957 18.1955L31.2157 16.2339C31.1588 16.0832 31.1588 15.9168 31.2157 15.7662L31.957 13.8045C32.0397 13.5857 32.0007 13.3396 31.8544 13.157L30.5433 11.5204C30.4425 11.3947 30.3911 11.2366 30.3987 11.0756L30.4975 8.9809C30.5085 8.74721 30.3953 8.52515 30.1998 8.39672L28.4471 7.24548C28.3125 7.15704 28.2147 7.02248 28.1722 6.86704L27.619 4.84437C27.5573 4.61875 27.381 4.44256 27.1554 4.38081L25.1327 3.82757C24.9773 3.78507 24.8427 3.68732 24.7543 3.55263L23.6031 1.79996C23.4746 1.60446 23.2526 1.49127 23.0189 1.50227L20.9242 1.60109C20.7633 1.60871 20.6051 1.55727 20.4793 1.45652L18.8429 0.145348C18.6604 -0.000900873 18.4142 -0.0399006 18.1954 0.0427863ZM13.5544 0.00020032H13.587C13.5761 -6.70367e-05 13.5653 -6.65096e-05 13.5544 0.00020032Z" fill="#FFC850"/>
<path d="M12.07 22.6579H8.7409C8.43447 22.6579 8.18604 22.4095 8.18604 22.1031V13.2255C8.18604 12.9191 8.43447 12.6707 8.7409 12.6707H12.07C12.3764 12.6707 12.6249 12.9191 12.6249 13.2255V22.1031C12.6249 22.4096 12.3764 22.6579 12.07 22.6579Z" fill="white"/>
<path d="M24.6312 14.7082C24.5589 13.9862 23.8977 13.4641 23.1721 13.4641H18.449C19.7406 12.4184 20.6176 11.0157 20.7446 9.86208C20.8387 9.00665 20.2472 8.1941 19.3867 8.1861C18.615 8.17897 17.9868 8.79609 17.9868 9.56608C17.9868 10.0656 16.9026 11.5481 14.8706 12.2077C14.8676 12.2087 14.8647 12.2097 14.8618 12.2107C14.3864 12.3679 14.0935 12.8487 14.0935 13.3493V22.3416C14.0935 22.648 14.3419 22.8965 14.6484 22.8965H21.8049C22.3576 22.8965 22.87 22.5187 22.9587 21.973C23.0718 21.2778 22.5382 20.6771 21.8643 20.6771H22.3598C22.9126 20.6771 23.4249 20.2992 23.5137 19.7536C23.6267 19.0584 23.0931 18.4576 22.4192 18.4576H22.9147C23.4675 18.4576 23.9799 18.0798 24.0686 17.5342C24.1817 16.839 23.6481 16.2382 22.9741 16.2382H23.2516C24.0645 16.2384 24.7143 15.5385 24.6312 14.7082Z" fill="white"/>
<path d="M10.4511 21.2709C10.9108 21.2709 11.2834 20.8983 11.2834 20.4387C11.2834 19.9791 10.9108 19.6064 10.4511 19.6064C9.9915 19.6064 9.6189 19.9791 9.6189 20.4387C9.6189 20.8983 9.9915 21.2709 10.4511 21.2709Z" fill="#FF9900"/>
</svg>
