<svg width="40" height="40" viewBox="0 0 40 40" fill="none" xmlns="http://www.w3.org/2000/svg">
<path d="M19.9163 0.636475C9.63417 0.636475 1.27471 8.66155 0.605957 18.6929L11.0553 22.9562C11.3061 22.789 11.6404 22.6218 11.9748 22.4547C12.7272 22.1203 13.4795 22.0367 14.2319 22.0367L18.9968 15.1819V15.0983C18.9968 11.0022 22.3405 7.74201 26.3531 7.74201C30.4492 7.74201 33.7094 11.0858 33.7094 15.0983C33.7094 19.1945 30.4492 22.4547 26.3531 22.4547C26.2695 22.4547 26.2695 22.4547 26.1859 22.4547L19.3311 27.3867C19.3311 28.1391 19.2475 28.8914 18.9132 29.5602C17.7428 32.3188 14.6498 33.5727 11.8912 32.486C10.2193 31.8172 9.04901 30.3125 8.71463 28.7242L1.4419 25.7148C3.86615 33.6563 11.2225 39.4244 19.9999 39.4244C30.7 39.4244 39.3938 30.7305 39.3938 20.0304C39.3102 9.33031 30.6164 0.636475 19.9163 0.636475Z" fill="#643EFF"/>
<path d="M12.6437 30.3127L10.2195 29.3095C10.6375 30.2291 11.3898 30.9814 12.3929 31.3158C14.4828 32.2353 16.907 31.2322 17.8266 29.0587C18.2446 28.0556 18.2446 26.8853 17.8266 25.8821C17.4086 24.879 16.5727 24.0431 15.5695 23.6251C14.5664 23.2071 13.4797 23.2071 12.4765 23.5415L14.9844 24.5446C16.5727 25.2134 17.2414 26.9689 16.6563 28.5572C15.9875 30.2291 14.232 30.9814 12.6437 30.3127Z" fill="#643EFF"/>
<path d="M31.2016 15.1821C31.2016 12.5071 29.0281 10.25 26.2695 10.25C23.5945 10.25 21.3374 12.4235 21.3374 15.1821C21.3374 17.8571 23.5109 20.1142 26.2695 20.1142C29.0281 20.1142 31.2016 17.8571 31.2016 15.1821ZM22.6749 15.1821C22.6749 13.1758 24.3468 11.5039 26.3531 11.5039C28.3593 11.5039 30.0312 13.1758 30.0312 15.1821C30.0312 17.1883 28.3593 18.8602 26.3531 18.8602C24.2632 18.8602 22.6749 17.1883 22.6749 15.1821Z" fill="#643EFF"/>
</svg>
