<svg width="47" height="28" viewBox="0 0 47 28" fill="none" xmlns="http://www.w3.org/2000/svg">
<g clip-path="url(#clip0)">
<path d="M20.5259 21.7836H16.7822L19.1238 7.26318H22.8672L20.5259 21.7836Z" fill="#00579F"/>
<path d="M34.0972 7.61819C33.3588 7.32439 32.1876 7 30.7394 7C27.0424 7 24.439 8.97714 24.423 11.8039C24.3923 13.8894 26.287 15.0478 27.7041 15.7432C29.1525 16.4537 29.6448 16.9175 29.6448 17.5509C29.6301 18.5237 28.4744 18.9721 27.3966 18.9721C25.9019 18.9721 25.1011 18.7409 23.884 18.1997L23.3911 17.9677L22.8672 21.2272C23.7452 21.6284 25.3629 21.9844 27.0424 22C30.9706 22 33.5279 20.0534 33.5582 17.0411C33.5731 15.3882 32.5727 14.1216 30.4158 13.0866C29.1064 12.4223 28.3045 11.9743 28.3045 11.2945C28.3199 10.6765 28.9827 10.0435 30.4608 10.0435C31.6779 10.0125 32.5721 10.3059 33.2495 10.5995L33.5881 10.7537L34.0972 7.61819Z" fill="#00579F"/>
<path d="M39.0733 16.6395C39.3816 15.8053 40.568 12.5768 40.568 12.5768C40.5524 12.6078 40.8757 11.7272 41.0605 11.1867L41.3221 12.4378C41.3221 12.4378 42.0311 15.9135 42.185 16.6395C41.5999 16.6395 39.8128 16.6395 39.0733 16.6395ZM43.6944 7.26318H40.7987C39.9057 7.26318 39.2273 7.52557 38.842 8.46795L33.2812 21.7834H37.2094C37.2094 21.7834 37.8561 19.9912 37.9951 19.6052C38.426 19.6052 42.2473 19.6052 42.8016 19.6052C42.9091 20.115 43.2483 21.7834 43.2483 21.7834H46.7146L43.6944 7.26318Z" fill="#00579F"/>
<path d="M13.6559 7.26318L9.98959 17.1647L9.58896 15.1565C8.91114 12.8394 6.78535 10.3219 4.41309 9.07012L7.77127 21.7682H11.7301L17.6145 7.26318H13.6559Z" fill="#00579F"/>
<path d="M6.58481 7.26331H0.56162L0.5 7.55669C5.19846 8.76166 8.31016 11.6662 9.58862 15.1573L8.27925 8.48388C8.06369 7.55649 7.40122 7.2939 6.58481 7.26331Z" fill="#FAA61A"/>
</g>
<defs>
<clipPath id="clip0">
<rect width="46" height="28" fill="white" transform="translate(0.5)"/>
</clipPath>
</defs>
</svg>
