<svg width="62" height="28" viewBox="0 0 62 28" fill="none" xmlns="http://www.w3.org/2000/svg">
<g clip-path="url(#clip0)">
<path d="M58.7478 9.43445C59.5458 9.43445 60.3438 9.43445 61.1418 9.40646C61.417 9.40646 61.4995 9.49044 61.4995 9.7704C61.4995 11.5341 61.4995 13.2698 61.4995 15.0335C61.4995 17.5251 61.4995 20.0447 61.4995 22.5363C61.4995 22.8443 61.4445 22.9282 61.1143 22.9282C56.106 22.9282 51.0978 22.9282 46.0895 22.9282C45.0163 22.9282 44.3284 22.2284 44.3284 21.1085C44.3284 17.8891 44.3559 14.6696 44.3284 11.4501C44.3008 10.2463 44.7411 9.32247 45.5667 8.5106C46.3922 7.72673 47.3278 7.08284 48.2084 6.38295C50.7125 4.39528 53.1891 2.37961 55.6933 0.391936C55.8309 0.279954 55.9684 0.167972 56.1886 0C56.1886 3.19148 56.1886 6.27097 56.1886 9.35047C56.1886 11.0582 56.1611 12.7379 56.1611 14.4456C56.1611 14.6976 56.106 14.8656 55.8859 15.0055C53.6294 16.5453 51.4005 18.113 49.1715 19.6528C48.346 20.2127 47.5204 20.8006 46.6949 21.3885C46.7775 21.4725 46.8325 21.4165 46.915 21.4165C48.2909 20.9686 49.6668 20.5206 51.0427 20.0727C53.4918 19.2608 55.9134 18.449 58.3625 17.6371C58.6652 17.5531 58.7753 17.4131 58.7753 17.1052C58.7202 14.5856 58.7478 12.01 58.7478 9.43445ZM53.8771 9.35047C53.8771 8.65058 53.4093 8.28664 52.7213 8.45461C51.9508 8.65058 51.2629 9.51844 51.2078 10.3303C51.1803 11.0022 51.6481 11.4221 52.281 11.2822C53.1066 11.1142 53.8771 10.1623 53.8771 9.35047Z" fill="#FECB01"/>
<path d="M6.82193 15.5094C6.82193 17.609 6.82193 19.7367 6.82193 21.8363C6.82193 22.1163 6.76689 22.2283 6.46419 22.2283C5.44603 22.2283 5.44603 22.2283 5.44603 21.1924C5.44603 20.0166 5.44603 18.8408 5.44603 17.637C5.44603 17.497 5.5561 17.2171 5.30844 17.2171C5.03326 17.2171 4.67553 17.0211 4.4829 17.413C3.93254 18.5609 3.35467 19.6807 2.77679 20.8285C2.61168 21.1364 2.44657 21.4164 2.30898 21.7523C2.17139 22.1443 1.92373 22.2563 1.53848 22.2283C1.29082 22.2003 1.01564 22.2283 0.767979 22.2283C0.520318 22.2283 0.437764 22.1163 0.547836 21.8643C0.795497 21.4164 1.01564 20.9685 1.2633 20.5485C1.8687 19.4567 2.47409 18.3369 3.05197 17.2451C3.13452 17.1051 3.24459 16.9931 2.99693 16.8811C1.34586 15.9573 0.850533 14.4455 0.988123 12.6258C1.07068 11.562 1.34586 10.5822 2.08884 9.79828C2.77679 9.04241 3.62985 8.70646 4.59297 8.67847C5.22589 8.67847 5.8588 8.67847 6.46419 8.67847C6.76689 8.67847 6.84944 8.79045 6.84944 9.0704C6.82193 11.2261 6.82193 13.3537 6.82193 15.5094ZM5.44603 12.9898C5.44603 12.0659 5.44603 11.1421 5.44603 10.1902C5.44603 10.0502 5.52858 9.91027 5.30844 9.85428C4.26276 9.60232 3.21708 10.1342 2.77679 11.1701C2.44657 12.0099 2.36402 12.8778 2.50161 13.7456C2.74927 15.3414 3.57481 16.0413 5.11581 16.0133C5.41851 16.0133 5.44603 15.9013 5.44603 15.6493C5.44603 14.7815 5.44603 13.8856 5.44603 12.9898Z" fill="#FE0505"/>
<path d="M58.7483 9.43453C58.7483 12.0101 58.7483 14.5577 58.7483 17.1333C58.7483 17.4692 58.6383 17.5812 58.3356 17.6652C55.8865 18.4771 53.4649 19.2889 51.0158 20.1008C49.6399 20.5487 48.264 20.9967 46.8881 21.4446C46.8331 21.4726 46.778 21.5006 46.668 21.4166C47.4935 20.8287 48.319 20.2688 49.1446 19.6809C51.3735 18.1411 53.63 16.5734 55.859 15.0336C56.0791 14.8937 56.1341 14.7257 56.1341 14.4737C56.1341 12.766 56.1341 11.0863 56.1617 9.37854C56.8771 9.37854 57.5926 9.40654 58.3081 9.40654C58.4457 9.43453 58.6108 9.43453 58.7483 9.43453Z" fill="#D5AA05"/>
<path d="M19.9209 17.0773C19.9209 18.2251 19.9209 19.4009 19.9209 20.5488C19.9209 20.8847 19.976 21.1087 20.3612 21.0527C20.5814 21.0247 20.6089 21.1647 20.6089 21.3606C20.6089 22.1165 20.6089 22.8444 20.6089 23.6003C20.6089 23.8522 20.5263 23.9922 20.2511 23.9922C19.3706 24.0202 19.3706 24.0202 19.3706 23.1243C19.3706 22.2285 19.3706 22.2285 18.49 22.2285C17.6369 22.2285 16.7564 22.2285 15.9033 22.2285C15.6832 22.2285 15.6006 22.2845 15.6281 22.5084C15.6556 22.8724 15.6281 23.2363 15.6281 23.5723C15.6281 23.8522 15.5456 23.9922 15.2429 23.9922C14.3623 24.0202 14.3623 24.0202 14.3623 23.1243C14.3623 22.5364 14.3623 21.9485 14.3623 21.3606C14.3623 21.1926 14.3898 21.0247 14.61 21.0527C14.8851 21.1087 14.9677 20.9127 15.0503 20.7167C15.6006 19.4849 15.8758 18.1691 16.0134 16.8254C16.1235 15.7055 16.151 14.5857 16.151 13.4939C16.151 13.2419 16.206 13.158 16.4812 13.158C17.5269 13.186 18.5725 13.186 19.6182 13.158C19.8934 13.158 19.9484 13.2419 19.9484 13.5219C19.9209 14.7257 19.9209 15.9015 19.9209 17.0773ZM18.545 17.6932C18.545 16.8534 18.545 15.9855 18.545 15.1456C18.545 14.3058 18.545 14.3338 17.747 14.3338C17.5269 14.3338 17.4443 14.3898 17.4443 14.6417C17.3893 16.7974 17.1966 18.925 16.151 20.8847C16.0409 21.1087 16.1785 21.1087 16.3161 21.1087C16.949 21.1087 17.5819 21.0807 18.2423 21.1087C18.545 21.1087 18.5725 20.9967 18.5725 20.7447C18.5175 19.7089 18.545 18.7011 18.545 17.6932Z" fill="white"/>
<path d="M8.63885 17.6932C8.63885 16.3214 8.63885 14.9497 8.63885 13.5779C8.63885 13.2699 8.69388 13.158 9.0241 13.158C10.0147 13.158 10.0147 13.158 10.0147 14.1658C10.0147 14.9217 10.0147 15.6775 10.0147 16.4334C10.0147 16.6574 10.0698 16.7414 10.2899 16.7414C10.7853 16.7134 11.2806 16.7134 11.7759 16.7414C11.996 16.7414 12.0236 16.6574 12.0236 16.4614C12.0236 15.4816 12.0236 14.5297 12.0236 13.5499C12.0236 13.2419 12.1061 13.158 12.4088 13.158C13.427 13.158 13.427 13.158 13.427 14.1938C13.427 16.7134 13.427 19.233 13.427 21.7805C13.427 22.1445 13.3169 22.2285 12.9867 22.2285C12.0236 22.2005 12.0236 22.2285 12.0236 21.2486C12.0236 20.2408 12.0236 19.233 12.0236 18.2251C12.0236 18.0012 11.996 17.8892 11.7209 17.9172C11.2255 17.9452 10.7577 17.9452 10.2624 17.9172C10.0423 17.9172 9.98723 18.0012 9.98723 18.2251C9.98723 19.4289 9.98723 20.6327 9.98723 21.8645C9.98723 22.1725 9.93219 22.2845 9.60198 22.2845C8.61133 22.2565 8.61133 22.2845 8.61133 21.2486C8.63885 20.0168 8.63885 18.869 8.63885 17.6932Z" fill="white"/>
<path d="M29.2491 17.7211C29.2491 19.0369 29.2491 20.3527 29.2491 21.6405C29.2491 22.2844 29.2767 22.2004 28.6988 22.2004C27.8457 22.2004 27.8457 22.2004 27.8457 21.3325C27.8457 18.7569 27.8457 16.2093 27.8457 13.6338C27.8457 13.2978 27.9007 13.1578 28.286 13.1578C29.2491 13.1858 29.2491 13.1578 29.2491 14.1377C29.2491 15.1455 29.2491 16.1253 29.2491 17.1612C29.4418 17.0492 29.4693 16.8812 29.5518 16.7413C30.0472 15.7054 30.5425 14.6696 31.0103 13.6058C31.1754 13.2698 31.368 13.1018 31.7258 13.1578C32.056 13.1858 32.3587 13.1298 32.744 13.2138C32.1936 14.2497 31.6983 15.3135 31.0653 16.2933C30.6251 16.9932 30.6526 17.5251 31.0653 18.225C31.7533 19.4008 32.3037 20.6326 32.9366 21.8364C33.1017 22.1444 33.0467 22.2004 32.7164 22.2004C31.258 22.1724 31.5882 22.3963 30.9553 21.0806C30.4049 19.9607 29.8821 18.8129 29.3317 17.6931C29.3042 17.6931 29.2767 17.7211 29.2491 17.7211Z" fill="white"/>
<path d="M24.5711 17.9449C24.0483 17.9449 23.5254 17.9449 23.0026 17.9449C22.865 17.9449 22.7549 17.9169 22.7549 18.1409C22.7825 18.8128 22.81 19.4847 23.1402 20.1286C23.5805 20.9684 24.3235 21.2764 25.4517 21.0804C25.5067 21.0804 25.5893 21.0524 25.6443 21.0244C26.1671 20.9125 26.3873 21.1364 26.3598 21.6683C26.3598 21.8643 26.1946 21.8923 26.0846 21.9483C24.1859 22.9001 22.1771 22.4802 21.5167 19.8766C21.1039 18.1689 21.2415 16.4612 21.8194 14.8094C21.9845 14.3055 22.2596 13.8856 22.6449 13.5217C23.553 12.6258 24.9013 12.7658 25.6443 13.8016C26.1946 14.5855 26.3322 15.4813 26.4148 16.4052C26.4423 16.8531 26.4148 17.273 26.4423 17.721C26.4423 17.9449 26.3873 18.0009 26.1671 18.0009C25.6443 18.0009 25.0939 18.0009 24.5711 18.0009C24.5711 18.0009 24.5711 17.9729 24.5711 17.9449ZM25.0389 16.5452C24.9839 15.8733 24.9564 15.2854 24.7087 14.7535C24.5711 14.4175 24.406 14.1096 23.9932 14.1096C23.608 14.1096 23.3879 14.3895 23.2503 14.7255C22.9751 15.3694 22.8925 16.0412 22.8375 16.7411C22.81 16.9371 22.8925 16.9651 23.0576 16.9371C23.5805 16.8531 24.1033 16.8811 24.6261 16.8811C24.9564 16.8811 25.0939 16.7971 25.0389 16.5452Z" fill="white"/>
<path d="M33.3221 18.1972C33.3221 16.8814 33.4872 15.7895 33.955 14.7537C34.1201 14.3898 34.3402 14.0258 34.6154 13.7179C35.6336 12.5981 36.8994 12.85 37.9451 13.4099C38.0827 13.4939 38.1102 13.6059 38.0276 13.7459C38.0001 13.8299 37.9451 13.8859 37.9176 13.9418C37.7525 14.1658 37.6974 14.5018 37.4498 14.6137C37.1746 14.7257 37.037 14.3618 36.8168 14.2498C36.294 13.9698 35.8812 14.0258 35.5235 14.5298C35.1383 15.0617 35.0007 15.7056 34.8906 16.3495C34.7255 17.4133 34.698 18.4771 35.0007 19.5129C35.3584 20.8567 36.2115 21.3606 37.5598 21.0527C37.5873 21.0527 37.6149 21.0247 37.6424 21.0247C37.8075 21.0807 38.0276 20.7447 38.1652 21.1087C38.3578 21.6686 38.3578 21.7526 37.9726 21.9765C36.2115 22.9844 34.3678 22.2845 33.6798 20.3528C33.5698 20.0729 33.5147 19.7929 33.4597 19.5129C33.3221 19.037 33.2946 18.5331 33.3221 18.1972Z" fill="white"/>
<path d="M53.8774 9.35065C53.8774 10.1905 53.1069 11.1144 52.3088 11.2823C51.6759 11.4223 51.1806 11.0024 51.2356 10.3305C51.2907 9.51862 51.9786 8.67875 52.7491 8.45479C53.4096 8.25882 53.8774 8.65076 53.8774 9.35065Z" fill="#050505"/>
</g>
<defs>
<clipPath id="clip0">
<rect width="61" height="28" fill="white" transform="translate(0.5)"/>
</clipPath>
</defs>
</svg>
