<svg width="24" height="24" viewBox="0 0 24 24" fill="none" xmlns="http://www.w3.org/2000/svg">
<g id="round-expand_more-24px">
<path id="&#244;&#128;&#134;&#138;" d="M5 14.955C5 14.6639 5.10871 14.4325 5.31059 14.2309L11.1265 8.50569C11.3905 8.25189 11.6622 8.13246 11.9961 8.125C12.33 8.125 12.6095 8.24443 12.8658 8.50569L18.6894 14.2309C18.8913 14.4325 19 14.6713 19 14.955C19 15.5372 18.5186 16 17.9207 16C17.6256 16 17.3461 15.8806 17.1287 15.6716L11.9961 10.5957L6.87132 15.6716C6.65391 15.8806 6.37437 16 6.07931 16C5.48142 16 5 15.5372 5 14.955Z" fill="white"/>
</g>
</svg>
