<svg width="24" height="22" viewBox="0 0 24 22" fill="none" xmlns="http://www.w3.org/2000/svg">
<path d="M23.0139 4.00669H4.24886L3.96992 0.899251C3.9243 0.391084 3.49841 0.00170898 2.98823 0.00170898H0.98564C0.441285 0.00170898 0 0.442994 0 0.987349C0 1.5317 0.441285 1.97299 0.98564 1.97299H2.08712C2.68906 8.67919 1.13335 -8.65385 3.22074 14.6027C3.30119 15.513 3.79302 16.5008 4.6403 17.1719C3.1127 19.1227 4.50846 21.9987 6.99335 21.9987C9.05578 21.9987 10.5104 19.9417 9.80317 17.9935H15.1977C14.4913 19.9392 15.9429 21.9987 18.0075 21.9987C19.6553 21.9987 20.9958 20.6582 20.9958 19.0105C20.9958 17.3628 19.6553 16.0222 18.0075 16.0222H7.00001C6.2513 16.0222 5.59886 15.5705 5.31725 14.9124L21.0691 13.9867C21.4991 13.9614 21.8629 13.6597 21.9675 13.2418L23.9702 5.23137C24.1255 4.61023 23.6553 4.00669 23.0139 4.00669ZM6.99335 20.0274C6.43266 20.0274 5.97645 19.5712 5.97645 19.0105C5.97645 18.4497 6.43266 17.9935 6.99335 17.9935C7.55408 17.9935 8.01029 18.4497 8.01029 19.0105C8.01029 19.5712 7.55408 20.0274 6.99335 20.0274ZM18.0075 20.0274C17.4468 20.0274 16.9906 19.5712 16.9906 19.0105C16.9906 18.4497 17.4468 17.9935 18.0075 17.9935C18.5682 17.9935 19.0244 18.4497 19.0244 19.0105C19.0244 19.5712 18.5682 20.0274 18.0075 20.0274ZM20.2306 12.0613L5.05192 12.9533L4.4258 5.97792H21.7516L20.2306 12.0613Z" fill="white"/>
</svg>
