<svg width="24" height="24" viewBox="0 0 24 24" fill="none" xmlns="http://www.w3.org/2000/svg">
<path fill-rule="evenodd" clip-rule="evenodd" d="M4.07291 11.7814C4.18702 11.6787 4.30594 11.5696 4.43012 11.4555C5.89637 10.1095 8.09693 8.0893 11.7857 8.0893C15.8069 8.0893 18.7916 10.6472 19.9026 11.7582C20.1536 12.0092 20.5607 12.0092 20.8117 11.7582C21.0628 11.5071 21.0628 11.1001 20.8117 10.849C19.637 9.67429 16.3359 6.80359 11.7857 6.80359C7.57675 6.80359 5.03297 9.14958 3.56687 10.5017L3.5668 10.5018C3.44099 10.6178 3.32312 10.7265 3.21281 10.8258C2.94891 11.0633 2.92752 11.4697 3.16503 11.7336C3.40254 11.9975 3.80901 12.0189 4.07291 11.7814ZM13.9286 13.0179C13.9286 14.2013 12.9692 15.1607 11.7857 15.1607C10.6022 15.1607 9.64285 14.2013 9.64285 13.0179C9.64285 11.8344 10.6022 10.875 11.7857 10.875C12.9692 10.875 13.9286 11.8344 13.9286 13.0179ZM15.2143 13.0179C15.2143 14.9114 13.6793 16.4464 11.7857 16.4464C9.89216 16.4464 8.35714 14.9114 8.35714 13.0179C8.35714 11.1243 9.89216 9.5893 11.7857 9.5893C13.6793 9.5893 15.2143 11.1243 15.2143 13.0179Z" fill="#643EFF"/>
</svg>
