<svg width="32" height="32" viewBox="0 0 32 32" fill="none" xmlns="http://www.w3.org/2000/svg">
<g clip-path="url(#clip0)">
<path d="M3.43278 15.2854C3.43278 15.2854 4.69256 17.1428 7.33294 18.7149C7.33294 18.7149 5.42066 2.49601 17.8804 -0.320801C14.6882 11.4368 21.941 14.7526 24.5848 8.54082C29 14.4565 25.6477 19.6176 25.6477 19.6176C27.458 19.8794 28.9788 17.8945 28.9788 17.8945C28.9924 18.139 29 18.3852 29 18.6331C29 25.8383 23.1797 31.6792 16 31.6792C8.82029 31.6792 3 25.8383 3 18.6331C3 17.4757 3.15096 16.3538 3.43278 15.2854Z" fill="#FF6536"/>
<path d="M28.9788 17.8945C28.9788 17.8945 27.4581 19.8794 25.6477 19.6176C25.6477 19.6176 29 14.4565 24.5849 8.54082C21.941 14.7526 14.6882 11.4368 17.8805 -0.320801C17.2131 -0.169926 16.5874 0.0196367 16 0.242824V31.6792C23.1797 31.6792 29 25.8383 29 18.6331C29 18.3851 28.9924 18.139 28.9788 17.8945Z" fill="#FF421D"/>
<path d="M10.2988 25.9577C10.2988 29.1175 12.8514 31.6792 16.0001 31.6792C19.1488 31.6792 21.7014 29.1175 21.7014 25.9577C21.7014 24.2663 20.9702 22.7465 19.8076 21.699C17.6033 24.7043 14.4621 20.1455 16.9101 16.8164C16.9101 16.8164 10.2988 17.6478 10.2988 25.9577Z" fill="#FBBF00"/>
<path d="M21.7013 25.9577C21.7013 24.2663 20.9701 22.7465 19.8075 21.699C17.6032 24.7043 14.462 20.1455 16.91 16.8164C16.91 16.8164 16.5508 16.8617 16 17.0362V31.6792C19.1487 31.6792 21.7013 29.1175 21.7013 25.9577Z" fill="#FFA900"/>
</g>
<defs>
<clipPath id="clip0">
<rect width="32" height="32" fill="white"/>
</clipPath>
</defs>
</svg>
