<svg width="32" height="32" viewBox="0 0 32 32" fill="none" xmlns="http://www.w3.org/2000/svg">
<path d="M16 31C24.2843 31 31 24.2843 31 16C31 7.71573 24.2843 1 16 1C7.71573 1 1 7.71573 1 16C1 24.2843 7.71573 31 16 31Z" fill="#FC445F"/>
<path d="M31 16C31 14.656 30.8222 13.3537 30.4907 12.1142L25.2175 6.84109C25.2175 6.84109 21.332 5.51172 19.8085 8.38281C18.2851 11.2539 6.64575 25.4128 6.64575 25.4128L11.5667 30.3338C12.9679 30.7666 14.4567 31 16 31C24.2842 31 31 24.2843 31 16Z" fill="#E00F5A"/>
<path d="M6.71313 21.7964L6.64575 25.4128L10.2621 25.3454L10.146 23.3051L12.1863 23.4212L12.0702 21.3809L14.1105 21.497L13.9945 19.4567L16.0347 19.5728L18.8424 16.7651L15.2935 13.2161L6.71313 21.7964Z" fill="#FED940"/>
<path d="M18.8428 16.765L16.0349 19.5728L13.9948 19.4568L14.1108 21.4969L12.0707 21.3809L12.1867 23.421L10.1462 23.3054L10.2622 25.3455L6.646 25.4127L17.0682 14.9904L18.8428 16.765Z" fill="#FBBE2C"/>
<path d="M25.2173 6.84109C22.5655 4.18932 18.2661 4.18932 15.6143 6.84109C12.9625 9.49287 12.9625 13.7923 15.6143 16.4441C18.2661 19.0959 22.5655 19.0959 25.2173 16.4441C27.8691 13.7923 27.8691 9.49287 25.2173 6.84109ZM21.1196 10.9388C20.4271 10.2463 20.4271 9.12344 21.1196 8.43092C21.8121 7.7384 22.935 7.7384 23.6275 8.43092C24.32 9.12344 24.32 10.2463 23.6275 10.9388C22.935 11.6313 21.8121 11.6313 21.1196 10.9388Z" fill="#FFE780"/>
<path d="M25.2172 6.84115L23.6274 8.43091C24.3198 9.12326 24.3198 10.246 23.6274 10.9384C22.9347 11.6311 21.8119 11.6311 21.1196 10.9388L15.6145 16.4439C16.2413 17.0707 16.9602 17.5493 17.7279 17.8795C20.2068 18.9472 23.1924 18.469 25.2172 16.4443C27.8693 13.7922 27.8688 9.49281 25.2172 6.84115Z" fill="#FED940"/>
</svg>
