<svg width="24" height="24" viewBox="0 0 24 24" fill="none" xmlns="http://www.w3.org/2000/svg">
<path d="M21.2595 19.4975H7.50352C6.93657 19.4975 6.47705 19.038 6.47705 18.471C6.47705 17.9041 6.93657 17.4446 7.50352 17.4446H21.2592C21.8261 17.4446 22.2856 17.9041 22.2856 18.471C22.2856 19.038 21.8265 19.4975 21.2595 19.4975Z" fill="white"/>
<path d="M21.2595 13.0544H7.50352C6.93657 13.0544 6.47705 12.5949 6.47705 12.0279C6.47705 11.461 6.93657 11.0015 7.50352 11.0015H21.2592C21.8261 11.0015 22.2856 11.461 22.2856 12.0279C22.286 12.5949 21.8265 13.0544 21.2595 13.0544Z" fill="white"/>
<path d="M21.2595 6.61128H7.50352C6.93657 6.61128 6.47705 6.15177 6.47705 5.58481C6.47705 5.01786 6.93657 4.55835 7.50352 4.55835H21.2592C21.8261 4.55835 22.2856 5.01786 22.2856 5.58481C22.2856 6.15177 21.8265 6.61128 21.2595 6.61128Z" fill="white"/>
<path d="M3.0929 7.04273C3.85425 7.04273 4.47144 6.42553 4.47144 5.66419C4.47144 4.90284 3.85425 4.28564 3.0929 4.28564C2.33155 4.28564 1.71436 4.90284 1.71436 5.66419C1.71436 6.42553 2.33155 7.04273 3.0929 7.04273Z" fill="white"/>
<path d="M3.0929 13.4067C3.85425 13.4067 4.47144 12.7895 4.47144 12.0282C4.47144 11.2669 3.85425 10.6497 3.0929 10.6497C2.33155 10.6497 1.71436 11.2669 1.71436 12.0282C1.71436 12.7895 2.33155 13.4067 3.0929 13.4067Z" fill="white"/>
<path d="M3.0929 19.77C3.85425 19.77 4.47144 19.1528 4.47144 18.3915C4.47144 17.6301 3.85425 17.0129 3.0929 17.0129C2.33155 17.0129 1.71436 17.6301 1.71436 18.3915C1.71436 19.1528 2.33155 19.77 3.0929 19.77Z" fill="white"/>
</svg>
