<svg width="32" height="32" viewBox="0 0 32 32" fill="none" xmlns="http://www.w3.org/2000/svg">
<path d="M32 14.4499C32 13.977 31.6852 13.5567 31.2131 13.4516L28.2754 12.7159L30.4787 10.6141C30.7934 10.2989 30.8984 9.7734 30.6361 9.35304L29.0623 6.67323C28.8525 6.25287 28.3279 6.09524 27.9082 6.20033L24.9705 7.04105L25.8098 4.09852C25.9148 3.62562 25.7574 3.15271 25.3377 2.94253L22.6623 1.36617C22.2426 1.15599 21.718 1.20854 21.4033 1.52381L19.3049 3.73071L18.5705 0.788177C18.4656 0.315271 18.0459 0 17.5738 0H14.4262C13.9541 0 13.5344 0.315271 13.4295 0.788177L12.6951 3.73071L10.5967 1.52381C10.282 1.20854 9.75738 1.10345 9.3377 1.36617L6.6623 2.94253C6.24262 3.15271 6.08525 3.67816 6.19016 4.09852L7.02951 7.04105L4.0918 6.20033C3.61967 6.09524 3.14754 6.25287 2.93771 6.67323L1.36393 9.35304C1.1541 9.7734 1.20656 10.2989 1.52131 10.6141L3.72459 12.7159L0.786885 13.4516C0.314754 13.5567 0 13.977 0 14.4499V17.5501C0 18.023 0.314754 18.4434 0.786885 18.5484L3.72459 19.2841L1.52131 21.3859C1.20656 21.7012 1.10164 22.2266 1.36393 22.647L2.93771 25.3268C3.14754 25.7471 3.67213 25.9048 4.0918 25.7997L7.02951 24.959L6.19016 27.9015C6.08525 28.3744 6.24262 28.8473 6.6623 29.0575L9.3377 30.6338C9.75738 30.844 10.282 30.7915 10.5967 30.4762L12.6951 28.2693L13.4295 31.2118C13.5344 31.6847 13.9541 32 14.4262 32H17.5738C18.0459 32 18.4656 31.6847 18.5705 31.2118L19.3049 28.2693L21.4033 30.4762C21.718 30.7915 22.2426 30.8966 22.6623 30.6338L25.3377 29.0575C25.7574 28.8473 25.9148 28.3218 25.8098 27.9015L24.9705 24.959L27.9082 25.7997C28.3803 25.9048 28.8525 25.7471 29.0623 25.3268L30.6361 22.647C30.8459 22.2266 30.7934 21.7012 30.4787 21.3859L28.2754 19.2841L31.2131 18.5484C31.6852 18.4434 32 18.023 32 17.5501V14.4499Z" fill="#3284FF"/>
<path d="M7.00581 7.00569L24.9383 24.9382L27.866 25.7747C28.3366 25.8792 28.8071 25.7224 29.0162 25.3041L30.5847 22.6378C30.7938 22.2195 30.7415 21.6967 30.4278 21.383L28.232 19.2918L31.1598 18.5599C31.6303 18.4553 31.944 18.037 31.944 17.5665V14.4819C31.944 14.0114 31.6303 13.5931 31.1598 13.4886L28.232 12.7566L30.4278 10.6654C30.7415 10.3517 30.8461 9.82888 30.5847 9.41063L29.0162 6.74429C28.8071 6.32604 28.2843 6.16919 27.866 6.27375L24.9383 7.11025L25.7748 4.1825C25.8793 3.71197 25.7225 3.24144 25.3043 3.03231L22.6379 1.46388C22.2197 1.25475 21.6968 1.30703 21.3832 1.62072L19.2919 3.81653L18.5077 0.784219C18.4031 0.313688 17.9849 0 17.5143 0H14.3775C13.9069 0 13.4887 0.313688 13.3841 0.784219L12.6522 3.71197L10.5609 1.51616C10.2472 1.20247 9.72443 1.09791 9.30618 1.35931L6.63984 2.92775C6.22159 3.13688 6.06475 3.65969 6.16931 4.07794L7.00581 7.00569Z" fill="#0066FF"/>
<path d="M11.7634 19.2919L8.26054 13.1227L7.11035 19.867L18.4554 31.212C18.4554 31.1597 18.4554 31.1597 18.5077 31.1074L19.2396 28.1797L21.3309 30.3755C21.6445 30.6892 22.1674 30.7937 22.5856 30.5323L25.252 28.9639C25.6702 28.7548 25.827 28.232 25.7225 27.8137L24.886 24.886L27.8137 25.7225C28.232 25.827 28.7025 25.6702 28.9639 25.2519L14.6911 12.9135L11.7634 19.2919Z" fill="#0066FF"/>
<path d="M11.7111 12.8611H10.9269C10.8223 12.8611 10.7177 12.9657 10.7177 13.0703V15.6843C10.7177 16.2594 10.7177 16.7822 10.77 17.3051C10.5609 16.9391 10.3518 16.5208 10.0904 16.1026L8.05138 12.9134C7.9991 12.8611 7.94682 12.8089 7.89454 12.8089H7.00576C6.90119 12.8089 6.79663 12.9134 6.79663 13.018V19.344C6.79663 19.4486 6.90119 19.5532 7.00576 19.5532H7.78997C7.89454 19.5532 7.9991 19.4486 7.9991 19.344V16.6254C7.9991 15.9457 7.9991 15.4229 7.9991 14.9524C8.20823 15.3707 8.46963 15.7889 8.78332 16.2594L10.77 19.4486C10.8223 19.5009 10.8746 19.5532 10.9269 19.5532H11.7634C11.8679 19.5532 11.9725 19.4486 11.9725 19.344V13.0703C11.9202 12.9657 11.8156 12.8611 11.7111 12.8611Z" fill="white"/>
<path d="M16.6778 18.4554H14.1683V16.6255H16.4164C16.521 16.6255 16.6255 16.521 16.6255 16.4164V15.7368C16.6255 15.6322 16.521 15.5276 16.4164 15.5276H14.1683V13.9592H16.521C16.6255 13.9592 16.7301 13.8546 16.7301 13.7501V13.0704C16.7301 12.9659 16.6255 12.8613 16.521 12.8613H13.1227C13.0181 12.8613 12.9136 12.9659 12.9136 13.0704V19.3965C12.9136 19.501 13.0181 19.6056 13.1227 19.6056H16.6778C16.7824 19.6056 16.887 19.501 16.887 19.3965V18.7168C16.887 18.56 16.7824 18.4554 16.6778 18.4554Z" fill="white"/>
<path d="M25.0952 12.9136C25.0429 12.8613 24.9907 12.8091 24.9384 12.8091H24.1019C23.9973 12.8091 23.945 12.8613 23.8928 12.9659L23.0563 16.1551V16.2596C22.9517 16.6256 22.8471 16.9916 22.7948 17.3575C22.7426 16.9916 22.638 16.6256 22.5334 16.2073L21.7492 13.0182C21.7492 12.9136 21.6447 12.8613 21.5401 12.8613H20.7036C20.599 12.8613 20.5468 12.9136 20.4945 13.0182L19.658 16.2073C19.5534 16.6256 19.4488 17.0438 19.3443 17.4098C19.2397 17.0438 19.1874 16.6256 19.0829 16.2073L18.3509 13.0182C18.3509 12.9136 18.2464 12.8613 18.1418 12.8613H17.3053C17.253 12.8613 17.2008 12.9136 17.1485 12.9659C17.0962 13.0182 17.0962 13.0705 17.0962 13.1227L18.7169 19.4488C18.7169 19.5533 18.8215 19.6056 18.926 19.6056H19.7625C19.8671 19.6056 19.9194 19.5533 19.9717 19.4488L20.8604 16.1551C20.965 15.7891 21.0696 15.4754 21.1219 15.1094C21.1741 15.4231 21.2787 15.7368 21.331 16.1551L22.1152 19.4488C22.1152 19.5533 22.2198 19.6056 22.3243 19.6056H23.1608C23.2654 19.6056 23.3177 19.5533 23.3699 19.4488L25.1475 13.1227C25.1475 13.0705 25.1475 12.9659 25.0952 12.9136Z" fill="white"/>
</svg>
