<svg width="24" height="24" viewBox="0 0 24 24" fill="none" xmlns="http://www.w3.org/2000/svg">
<path d="M10.3426 19.9611C10.7831 20.5281 11.4301 20.8951 12.1402 20.9808C12.8503 21.0664 13.5651 20.8638 14.1264 20.4177C14.299 20.2857 14.4544 20.1323 14.5887 19.9611M5.00073 13.5693V13.3712C5.02907 12.785 5.21229 12.217 5.53149 11.7258C6.0628 11.1358 6.4265 10.4128 6.58445 9.63255C6.58445 9.02955 6.58445 8.41793 6.63582 7.81493C6.9012 4.9119 9.70054 2 12.4656 2H12.5341C15.2992 2 18.0986 4.9119 18.3725 7.81493C18.4239 8.41793 18.3725 9.02955 18.4153 9.63255C18.5754 10.4146 18.9387 11.1399 19.4683 11.7344C19.7899 12.2213 19.9734 12.7872 19.999 13.3712V13.5607C20.0181 14.3482 19.7536 15.1162 19.2543 15.7229C18.5944 16.4323 17.6989 16.8736 16.7374 16.9633C13.9179 17.2735 11.0733 17.2735 8.25379 16.9633C7.29336 16.8698 6.3992 16.4291 5.73695 15.7229C5.24529 15.1157 4.98433 14.3523 5.00073 13.5693Z" stroke="white" stroke-width="1.5" stroke-linecap="round" stroke-linejoin="round"/>
</svg>
