<svg width="10" height="9" viewBox="0 0 10 9" fill="none" xmlns="http://www.w3.org/2000/svg">
<path d="M2.49951 2.778H7.49951C6.65422 4.852 5.84627 6.926 5 9C4.15004 6.93289 3.31651 4.85882 2.49951 2.778ZM7.46118 2.309H2.49951V2.269C2.80716 1.526 3.11579 0.822 3.42343 0.079C3.46177 0.038 3.46177 0 3.53843 0H6.3849C6.42324 0 6.46157 0 6.4999 0.04C6.80755 0.822 7.1152 1.526 7.46118 2.309C7.46118 2.269 7.46118 2.309 7.46118 2.309ZM9.88402 2.778C8.53843 4.578 7.19186 6.338 5.84627 8.1C5.92294 7.943 5.96127 7.787 6.03794 7.63C6.69353 6.026 7.30784 4.422 7.96147 2.856C7.96147 2.817 8.00079 2.778 8.03814 2.778H9.88402ZM4.11539 8.06L0.076666 2.779H1.92255C2.0002 2.779 2.0002 2.779 2.03853 2.857L4.11539 8.023V8.062V8.06ZM6.96186 0H8.73108C8.76941 0 8.80676 0 8.84608 0.04C9.23039 0.783 9.57637 1.487 9.96167 2.23C9.96167 2.23 9.96167 2.27 10 2.27H8.03814C7.9998 2.27 7.96147 2.27 7.96147 2.23C7.61549 1.526 7.30784 0.783 6.96186 0C6.96186 0.04 6.96186 0.04 6.96186 0ZM2.9998 0C2.80814 0.391 2.65382 0.822 2.49951 1.213L2.03755 2.27C2.03755 2.309 2.0002 2.348 1.96186 2.348H0V2.308C0.384313 1.566 0.730293 0.862 1.11559 0.119C1.15392 0.079 1.19225 0.04 1.23059 0.04H2.8848C2.92314 0 2.96147 0 2.9998 0Z" fill="white"/>
</svg>
