<svg width="32" height="32" viewBox="0 0 32 32" fill="none" xmlns="http://www.w3.org/2000/svg">
<path d="M28.5623 32H14.8125C12.917 32 11.375 30.458 11.375 28.5625V12.3127C11.375 12.1099 11.4408 11.9125 11.5625 11.7502L17.1874 4.25027C17.3645 4.01421 17.6423 3.87527 17.9374 3.87527H25.4374C25.7325 3.87527 26.0103 4.01421 26.1874 4.25027L31.8123 11.7502C31.934 11.9125 31.9998 12.1099 31.9998 12.3127V28.5625C31.9998 30.458 30.4578 32 28.5623 32Z" fill="#067C60"/>
<path d="M10.7279 27.6747L1.00522 17.9521C-0.335075 16.6118 -0.335075 14.431 1.00522 13.0907L12.4956 1.60042C12.639 1.45699 12.8251 1.36399 13.0259 1.33524L22.3066 0.00943814C22.5988 -0.0323115 22.8935 0.0659376 23.1021 0.274623L28.4054 5.57788C28.6141 5.78657 28.7123 6.08125 28.6706 6.37338L27.3448 15.654C27.3161 15.8548 27.223 16.041 27.0796 16.1843L15.5892 27.6747C14.2489 29.015 12.0681 29.015 10.7279 27.6747Z" fill="#00DFA9"/>
<path d="M27.3449 15.6545L28.6707 6.37385C28.7124 6.08173 28.6142 5.78704 28.4055 5.57836L25.7539 2.92676L5.8667 22.8139L10.728 27.6752C12.0683 29.0155 14.2491 29.0155 15.5894 27.6752L27.0797 16.1848C27.2231 16.0414 27.3162 15.8553 27.3449 15.6545Z" fill="#00B78A"/>
<path d="M11.1702 21.9307C10.927 21.6875 10.8272 21.3191 10.9434 20.9707L15.3628 7.71256C15.5265 7.22138 16.0574 6.95588 16.5486 7.11963C17.04 7.28331 17.3052 7.81418 17.1415 8.30543L12.7221 21.5636C12.5585 22.0547 12.0275 22.3202 11.5363 22.1565C11.3935 22.1089 11.2698 22.0303 11.1702 21.9307Z" fill="white"/>
<path d="M21.7772 12.6485C20.6801 11.5513 18.895 11.5513 17.7979 12.6485C16.7008 13.7456 16.7008 15.5306 17.7979 16.6277C18.895 17.7248 20.6801 17.7248 21.7772 16.6277C22.8743 15.5306 22.8743 13.7455 21.7772 12.6485ZM20.4508 15.3013C20.0851 15.667 19.49 15.667 19.1244 15.3013C18.7587 14.9356 18.7587 14.3406 19.1244 13.9749C19.49 13.6092 20.0851 13.6092 20.4508 13.9749C20.8165 14.3406 20.8165 14.9356 20.4508 15.3013Z" fill="#CFCFCF"/>
<path d="M10.287 12.6485C9.18986 11.5513 7.40481 11.5513 6.3077 12.6485C5.21058 13.7456 5.21058 15.5306 6.3077 16.6277C7.40481 17.7248 9.18986 17.7248 10.287 16.6277C11.3841 15.5306 11.3841 13.7455 10.287 12.6485ZM8.96055 15.3013C8.59486 15.667 7.99981 15.667 7.63412 15.3013C7.26844 14.9356 7.26844 14.3406 7.63412 13.9749C7.99981 13.6092 8.59486 13.6092 8.96055 13.9749C9.32623 14.3406 9.32623 14.9356 8.96055 15.3013Z" fill="white"/>
<path d="M12.7221 21.5635L15.5247 13.1557L12.5602 16.1202L10.9434 20.9706C10.8272 21.319 10.927 21.6874 11.1702 21.9306C11.2698 22.0302 11.3935 22.1088 11.5363 22.1564C12.0275 22.3202 12.5585 22.0547 12.7221 21.5635Z" fill="#CFCFCF"/>
<path d="M28.4054 0.274849C28.0393 -0.0912096 27.4457 -0.0912096 27.0796 0.274849L21.7764 5.57811L23.1022 6.90391L28.4054 1.60065C28.7715 1.23459 28.7715 0.640908 28.4054 0.274849Z" fill="#FFDC64"/>
<path d="M28.4053 1.60079C28.7715 1.23473 28.7715 0.641115 28.4053 0.274994L22.4392 6.24112L23.1021 6.90406L28.4053 1.60079Z" fill="#FFA900"/>
<path d="M23.7651 8.50432C23.5252 8.50432 23.2853 8.41276 23.1023 8.2297L20.4506 5.57804C20.0845 5.21198 20.0845 4.61836 20.4506 4.25224C20.8167 3.88618 21.4103 3.88618 21.7764 4.25224L24.4281 6.9039C24.7942 7.26996 24.7942 7.86358 24.4281 8.2297C24.245 8.41276 24.0051 8.50432 23.7651 8.50432Z" fill="white"/>
<path d="M24.428 6.90402L23.1022 5.57822L21.7764 6.90402L23.1022 8.22982C23.2852 8.41288 23.5252 8.50444 23.765 8.50444C24.005 8.50444 24.2449 8.41288 24.4279 8.22982C24.7941 7.86376 24.7941 7.27014 24.428 6.90402Z" fill="#009B76"/>
</svg>
