<svg width="24" height="24" viewBox="0 0 24 24" fill="none" xmlns="http://www.w3.org/2000/svg">
<path fill-rule="evenodd" clip-rule="evenodd" d="M10.8889 2C5.97969 2 2 5.9797 2 10.8889C2 15.7981 5.97969 19.7778 10.8889 19.7778C12.9824 19.7778 14.9068 19.0541 16.4257 17.8432L20.404 21.7323L20.509 21.8209C20.8756 22.0868 21.3953 22.0565 21.7269 21.7306C22.0918 21.3721 22.091 20.7916 21.7252 20.434L17.7467 16.5447C19.0155 15.0079 19.7778 13.0374 19.7778 10.8889C19.7778 5.9797 15.7981 2 10.8889 2ZM10.89 3.69C14.8665 3.69 18.09 6.91355 18.09 10.89C18.09 14.8664 14.8665 18.09 10.89 18.09C6.91355 18.09 3.69 14.8664 3.69 10.89C3.69 6.91355 6.91355 3.69 10.89 3.69Z" fill="#9A93AA"/>
</svg>
