<svg width="16" height="16" viewBox="0 0 16 16" fill="none" xmlns="http://www.w3.org/2000/svg">
<g opacity="0.5">
<path d="M11.3962 10.9551C11.1954 11.1921 11.2247 11.547 11.4617 11.7479C11.699 11.9489 12.054 11.919 12.2545 11.6824L15.0672 8.36365C15.2466 8.15205 15.2413 7.84169 15.0672 7.63635L12.2545 4.3176C12.0537 4.08052 11.6987 4.05129 11.4617 4.25212C11.2247 4.45295 11.1954 4.80792 11.3962 5.0449L13.424 7.4375H3.43839C3.1277 7.4375 2.87578 7.68931 2.87578 8C2.87578 8.31069 3.1277 8.5625 3.43839 8.5625H13.424L11.3962 10.9551ZM1.36231 0.799999H6.25101C6.5617 0.799999 6.81351 1.05181 6.81351 1.3625C6.81351 1.67319 6.5617 1.925 6.25101 1.925H1.92492V14.075H6.25101C6.5617 14.075 6.81351 14.3268 6.81351 14.6375C6.81351 14.9482 6.5617 15.2 6.25101 15.2H1.36231C1.05172 15.2 0.799805 14.9482 0.799805 14.6375V1.3625C0.799805 1.05181 1.05172 0.799999 1.36231 0.799999Z" fill="white"/>
</g>
</svg>
