<svg width="24" height="24" viewBox="0 0 24 24" fill="none" xmlns="http://www.w3.org/2000/svg">
<path d="M19.16 7.396C18.7 7.396 18.305 7.569 17.976 7.914C17.646 8.259 17.483 8.67 17.483 9.147C17.483 9.624 17.647 10.027 17.976 10.364C18.305 10.701 18.7 10.874 19.16 10.874C19.62 10.874 20.023 10.701 20.36 10.364C20.697 10.027 20.87 9.616 20.87 9.147C20.87 8.67 20.697 8.259 20.36 7.914C20.2068 7.74919 20.021 7.61804 19.8144 7.52886C19.6079 7.43969 19.385 7.39444 19.16 7.396ZM22.695 7.618C22.5002 7.15242 22.2185 6.7282 21.865 6.368C21.5178 6.00973 21.1045 5.7221 20.648 5.521C20.1768 5.31318 19.6669 5.20752 19.152 5.211C18.634 5.211 18.149 5.309 17.68 5.514C17.22 5.711 16.817 5.991 16.48 6.336C16.143 6.681 15.872 7.092 15.666 7.569C15.46 8.046 15.354 8.547 15.329 9.082L12.845 12.676H12.819C12.2817 12.6777 11.7555 12.8287 11.299 13.112L6.78398 10.342C6.73897 9.69585 6.48162 9.08271 6.05198 8.598C5.61698 8.096 5.05698 7.784 4.38198 7.652C3.99016 7.59706 3.59149 7.61674 3.20698 7.71C2.83698 7.8 2.49198 7.965 2.19698 8.187C1.89198 8.417 1.63698 8.697 1.43098 9.027C1.22356 9.35854 1.09177 9.73173 1.04498 10.12C0.970984 10.523 0.986984 10.918 1.08498 11.296C1.18498 11.682 1.34098 12.028 1.55498 12.34C1.76898 12.652 2.03198 12.907 2.35298 13.12C2.67398 13.333 3.02698 13.475 3.42298 13.55C3.70998 13.607 3.98098 13.607 4.25298 13.565C4.51498 13.515 4.77798 13.45 5.02498 13.359L9.88498 16.155C9.97499 16.903 10.295 17.528 10.845 18.038C11.397 18.54 12.055 18.794 12.819 18.794C13.229 18.794 13.609 18.712 13.969 18.547C14.324 18.383 14.636 18.161 14.907 17.889C15.17 17.619 15.384 17.297 15.547 16.927C15.704 16.565 15.787 16.171 15.787 15.751L19.124 13.086H19.149C19.683 13.086 20.185 12.986 20.645 12.782C21.105 12.586 21.517 12.306 21.862 11.944C22.207 11.59 22.487 11.171 22.692 10.694C22.9 10.218 22.999 9.708 22.999 9.157C23.0079 8.62879 22.9039 8.10477 22.694 7.62L22.695 7.618ZM4.66498 9.402C4.39188 9.21725 4.06331 9.13256 3.73493 9.16227C3.40654 9.19197 3.09851 9.33424 2.86298 9.565C2.58398 9.835 2.45298 10.175 2.45298 10.577C2.45298 10.889 2.53298 11.161 2.68998 11.399C2.84598 11.636 3.05198 11.809 3.30698 11.916L4.63898 12.656C4.39098 12.763 4.12898 12.82 3.86498 12.82C3.25698 12.82 2.74698 12.6 2.31898 12.163C1.89098 11.726 1.67898 11.193 1.67898 10.568C1.67898 9.943 1.89198 9.425 2.31898 8.988C2.74698 8.561 3.26498 8.348 3.86498 8.348C4.38298 8.348 4.84298 8.521 5.23798 8.858C5.63998 9.195 5.89498 9.631 6.00198 10.165L4.66198 9.402H4.66498ZM14.365 17.287C14.1674 17.4948 13.9287 17.659 13.664 17.7692C13.3994 17.8794 13.1146 17.9331 12.828 17.927C12.3152 17.9343 11.8176 17.7528 11.43 17.417C11.027 17.081 10.79 16.645 10.698 16.111L12.03 16.877C12.244 17.041 12.507 17.124 12.828 17.124C13.223 17.124 13.552 16.984 13.815 16.714C13.9455 16.5801 14.0482 16.4218 14.1174 16.2482C14.1865 16.0745 14.2207 15.8889 14.218 15.702C14.218 15.392 14.136 15.119 13.98 14.882C13.8322 14.6497 13.6169 14.4683 13.363 14.362L12.056 13.622C12.286 13.516 12.549 13.459 12.829 13.459C13.436 13.459 13.946 13.681 14.366 14.117C14.786 14.553 14.991 15.087 14.991 15.712C14.991 16.335 14.784 16.862 14.365 17.289V17.287ZM21.018 11.047C20.508 11.557 19.892 11.811 19.16 11.811C18.806 11.811 18.47 11.746 18.157 11.606C17.844 11.466 17.573 11.286 17.327 11.046C17.0843 10.8054 16.8936 10.5174 16.767 10.2C16.6345 9.86763 16.5676 9.51278 16.57 9.155C16.57 8.785 16.636 8.44 16.767 8.111C17.0229 7.46732 17.5224 6.95059 18.157 6.673C18.4723 6.53312 18.8141 6.46286 19.159 6.467C19.889 6.467 20.506 6.73 21.016 7.247C21.526 7.767 21.781 8.407 21.781 9.157C21.773 9.904 21.519 10.537 21.017 11.047H21.018Z" fill="#9A93AA"/>
</svg>
