<svg width="24" height="24" viewBox="0 0 24 24" fill="none" xmlns="http://www.w3.org/2000/svg">
<path d="M23.0519 5.29599C22.4506 6.18875 21.6995 6.97092 20.8319 7.60799C20.8389 7.78199 20.8389 7.95599 20.8389 8.12999C20.8399 14.46 16.0069 21 7.92591 21C5.45591 21 3.05291 20.296 0.972909 18.97C0.953035 18.9549 0.938457 18.9339 0.931269 18.91C0.924082 18.8861 0.924656 18.8605 0.932909 18.837C0.940063 18.8129 0.955559 18.7921 0.976626 18.7784C0.997693 18.7646 1.02296 18.7588 1.04791 18.762C1.39491 18.802 1.75091 18.82 2.10791 18.82C4.00838 18.8289 5.86157 18.2278 7.39491 17.105C6.48908 17.0295 5.62579 16.6879 4.91355 16.1232C4.20131 15.5584 3.67191 14.7958 3.39191 13.931C3.38391 13.891 3.39191 13.849 3.41691 13.824C3.42907 13.8106 3.44446 13.8005 3.46161 13.7947C3.47877 13.789 3.49712 13.7877 3.51491 13.791C4.02891 13.891 4.55091 13.899 5.04791 13.816C4.11142 13.5229 3.29259 12.9392 2.71005 12.1496C2.12752 11.3599 1.81154 10.4053 1.80791 9.42399V9.36599C1.80791 9.33299 1.83391 9.29099 1.86791 9.27599C1.88436 9.26715 1.90274 9.26253 1.92141 9.26253C1.94008 9.26253 1.95846 9.26715 1.97491 9.27599C2.47091 9.55472 3.01762 9.73152 3.58291 9.79599C3.04209 9.36581 2.60556 8.81889 2.30598 8.19617C2.00639 7.57344 1.8515 6.89103 1.85291 6.19999C1.85291 5.38699 2.06791 4.58299 2.47491 3.88699C2.49191 3.85399 2.52491 3.82899 2.55791 3.82899C2.59091 3.82899 2.62391 3.84499 2.64791 3.86899C3.75641 5.22297 5.1322 6.33382 6.68933 7.13218C8.24646 7.93053 9.95149 8.39923 11.6979 8.50899C11.639 8.21192 11.6088 7.90985 11.6079 7.60699C11.6079 5.07099 13.6799 3.00699 16.2159 2.99899C17.4659 2.99899 18.6759 3.51299 19.5389 4.40899C20.5089 4.20899 21.4359 3.85299 22.2989 3.34699C22.3179 3.33589 22.3397 3.33072 22.3616 3.33215C22.3836 3.33357 22.4046 3.34153 22.4219 3.35499C22.4549 3.38799 22.4719 3.43799 22.4549 3.47899C22.1669 4.38604 21.6017 5.17995 20.8389 5.74899C21.5552 5.62417 22.2537 5.41261 22.9189 5.11899C22.9689 5.10299 23.0189 5.11899 23.0519 5.15299C23.0654 5.1742 23.0726 5.19884 23.0726 5.22399C23.0726 5.24915 23.0654 5.27378 23.0519 5.29499V5.29599Z" fill="white"/>
</svg>
