<svg width="21" height="11" viewBox="0 0 21 11" fill="none" xmlns="http://www.w3.org/2000/svg">
<path d="M20.5214 0.745937C20.6656 0.31625 20.5214 0 19.8275 0H17.5313C16.9465 0 16.6775 0.271562 16.5333 0.574062C16.5333 0.574062 15.3638 3.08687 13.7108 4.71625C13.1767 5.18719 12.9311 5.33844 12.6387 5.33844C12.4945 5.33844 12.2723 5.18719 12.2723 4.7575V0.745937C12.2723 0.230312 12.1086 0 11.6252 0H8.0152C7.64874 0 7.43043 0.240625 7.43043 0.464063C7.43043 0.952188 8.2569 1.06563 8.34267 2.44062V5.42438C8.34267 6.0775 8.21012 6.19781 7.91774 6.19781C7.13805 6.19781 5.2434 3.67469 4.12065 0.787188C3.89454 0.226875 3.67233 0 3.08367 0H0.787485C0.132547 0 0 0.271562 0 0.574062C0 1.11031 0.779688 3.77438 3.62945 7.29438C5.52799 9.69719 8.20232 11 10.6349 11C12.0969 11 12.2762 10.7113 12.2762 10.2128C12.2762 7.91656 12.1436 7.7 12.8766 7.7C13.2157 7.7 13.8005 7.85125 15.1649 9.00969C16.7243 10.3847 16.9816 11 17.8549 11H20.151C20.806 11 21.1374 10.7113 20.9463 10.1406C20.5097 8.94094 17.5586 6.47281 17.426 6.30781C17.0869 5.92281 17.1843 5.75094 17.426 5.40719C17.4299 5.40375 20.2329 1.925 20.5214 0.745937Z" fill="white"/>
</svg>
