<svg width="24" height="24" viewBox="0 0 24 24" fill="none" xmlns="http://www.w3.org/2000/svg">
<path d="M20.9571 10.6399V9.8249C20.9571 8.33449 19.9878 7.08165 18.6804 6.72267L18.678 5.37883C18.678 4.06736 17.6665 3.00009 16.4231 3.00009H16.3038L5.75079 6.4544C5.51043 6.46905 5.2824 6.52769 5.06825 6.61591H5.04073C3.36428 6.61591 2 8.05544 2 9.8249V17.7911C2 19.5603 3.36402 21.0001 5.04073 21.0001H17.9163C19.5928 21.0001 20.9571 19.5606 20.9571 17.7911V16.7316C21.5659 16.4829 22 15.8601 22 15.1305V12.2404C21.9997 11.5114 21.5659 10.8886 20.9571 10.6399ZM20.4271 15.1303C20.4271 15.1629 20.4027 15.1886 20.3718 15.1886H16.1149C16.0839 15.1886 16.0598 15.1629 16.0598 15.1303V12.2404C16.0598 12.2086 16.0845 12.1826 16.1149 12.1826H20.3718C20.4022 12.1826 20.4271 12.2086 20.4271 12.2404V15.1303ZM16.5203 4.66695C16.8509 4.71673 17.1054 5.01708 17.1054 5.38022L17.1075 6.61619H10.5655L16.5203 4.66695ZM17.9163 19.3404H5.04099C4.23029 19.3404 3.57292 18.6465 3.57292 17.7908V9.8249C3.57292 8.96893 4.23029 8.2753 5.04099 8.2753H17.9163C18.7273 8.2753 19.3844 8.96893 19.3844 9.8249V10.5232H16.1149C15.2174 10.5232 14.4872 11.2935 14.4872 12.2404V15.1303C14.4872 16.0775 15.2174 16.848 16.1149 16.848H19.3844V17.7911C19.3844 18.6465 18.7273 19.3404 17.9163 19.3404Z" fill="white"/>
</svg>
